<mxfile modified="2024-07-19T13:36:27.559Z" host="app.diagrams.net" agent="Mozilla/5.0 (Windows NT 10.0; Win64; x64) AppleWebKit/537.36 (KHTML, like Gecko) Chrome/126.0.0.0 Safari/537.36 Edg/126.0.0.0" etag="8I23eCtjAYx8pidfGglf" version="24.7.1" type="github">
  <diagram id="E_PGC8ikLrtpTTjUDTau" name="Page-1">
    <mxGraphModel dx="2426" dy="2669" grid="1" gridSize="10" guides="1" tooltips="1" connect="1" arrows="1" fold="1" page="0" pageScale="1" pageWidth="850" pageHeight="1100" math="0" shadow="0">
      <root>
        <mxCell id="0" />
        <mxCell id="1" parent="0" />
        <mxCell id="EBgWATqBMwc3oVEpxPqy-2" value="" style="edgeStyle=orthogonalEdgeStyle;rounded=0;orthogonalLoop=1;jettySize=auto;html=1;" parent="1" source="Q5qYXPWBDSSwwiLCJ_TW-1" target="EBgWATqBMwc3oVEpxPqy-1" edge="1">
          <mxGeometry relative="1" as="geometry">
            <Array as="points">
              <mxPoint x="462.5" y="-1232" />
              <mxPoint x="462.5" y="-1232" />
            </Array>
          </mxGeometry>
        </mxCell>
        <mxCell id="5lNpF_FlYQscU_q7ITsC-33" style="edgeStyle=orthogonalEdgeStyle;rounded=0;orthogonalLoop=1;jettySize=auto;html=1;strokeColor=#000000;fontColor=#FF0000;entryX=0.104;entryY=0.221;entryDx=0;entryDy=0;entryPerimeter=0;" parent="1" source="Q5qYXPWBDSSwwiLCJ_TW-1" target="5lNpF_FlYQscU_q7ITsC-29" edge="1">
          <mxGeometry relative="1" as="geometry">
            <mxPoint x="392.5" y="-1550" as="targetPoint" />
            <Array as="points">
              <mxPoint x="392.5" y="-1549" />
            </Array>
          </mxGeometry>
        </mxCell>
        <mxCell id="Q5qYXPWBDSSwwiLCJ_TW-1" value="PC" style="rounded=0;whiteSpace=wrap;html=1;" parent="1" vertex="1">
          <mxGeometry x="352.5" y="-1250" width="80" height="35" as="geometry" />
        </mxCell>
        <mxCell id="EBgWATqBMwc3oVEpxPqy-44" style="edgeStyle=orthogonalEdgeStyle;rounded=0;orthogonalLoop=1;jettySize=auto;html=1;jumpStyle=arc;entryX=0;entryY=0.5;entryDx=0;entryDy=0;" parent="1" source="EBgWATqBMwc3oVEpxPqy-1" target="EBgWATqBMwc3oVEpxPqy-26" edge="1">
          <mxGeometry relative="1" as="geometry">
            <mxPoint x="742.5" y="-1085" as="targetPoint" />
            <Array as="points">
              <mxPoint x="632.5" y="-1250" />
              <mxPoint x="632.5" y="-1085" />
            </Array>
          </mxGeometry>
        </mxCell>
        <mxCell id="EBgWATqBMwc3oVEpxPqy-51" style="edgeStyle=orthogonalEdgeStyle;rounded=0;jumpStyle=none;orthogonalLoop=1;jettySize=auto;html=1;entryX=0.83;entryY=1.026;entryDx=0;entryDy=0;entryPerimeter=0;strokeColor=#000000;" parent="1" source="EBgWATqBMwc3oVEpxPqy-1" target="EBgWATqBMwc3oVEpxPqy-19" edge="1">
          <mxGeometry relative="1" as="geometry">
            <Array as="points">
              <mxPoint x="632.5" y="-1250" />
              <mxPoint x="632.5" y="-1180" />
            </Array>
          </mxGeometry>
        </mxCell>
        <mxCell id="EBgWATqBMwc3oVEpxPqy-53" style="edgeStyle=orthogonalEdgeStyle;rounded=0;jumpStyle=none;orthogonalLoop=1;jettySize=auto;html=1;strokeColor=#000000;entryX=0.5;entryY=1;entryDx=0;entryDy=0;" parent="1" source="EBgWATqBMwc3oVEpxPqy-1" target="EBgWATqBMwc3oVEpxPqy-16" edge="1">
          <mxGeometry relative="1" as="geometry">
            <mxPoint x="712.5" y="-1250" as="targetPoint" />
            <Array as="points">
              <mxPoint x="642.5" y="-1250" />
              <mxPoint x="642.5" y="-1250" />
            </Array>
          </mxGeometry>
        </mxCell>
        <mxCell id="EBgWATqBMwc3oVEpxPqy-1" value="INSTRUCTION MEMORY" style="rounded=0;whiteSpace=wrap;html=1;direction=south;fillColor=#d5e8d4;strokeColor=#82b366;" parent="1" vertex="1">
          <mxGeometry x="502.5" y="-1410" width="125" height="220" as="geometry" />
        </mxCell>
        <mxCell id="EBgWATqBMwc3oVEpxPqy-10" style="edgeStyle=orthogonalEdgeStyle;rounded=0;orthogonalLoop=1;jettySize=auto;html=1;entryX=0.5;entryY=1;entryDx=0;entryDy=0;" parent="1" source="EBgWATqBMwc3oVEpxPqy-3" target="Q5qYXPWBDSSwwiLCJ_TW-1" edge="1">
          <mxGeometry relative="1" as="geometry" />
        </mxCell>
        <mxCell id="EBgWATqBMwc3oVEpxPqy-12" style="edgeStyle=orthogonalEdgeStyle;rounded=0;orthogonalLoop=1;jettySize=auto;html=1;entryX=1;entryY=0.5;entryDx=0;entryDy=0;" parent="1" source="EBgWATqBMwc3oVEpxPqy-3" target="EBgWATqBMwc3oVEpxPqy-1" edge="1">
          <mxGeometry relative="1" as="geometry" />
        </mxCell>
        <mxCell id="EBgWATqBMwc3oVEpxPqy-45" style="edgeStyle=orthogonalEdgeStyle;rounded=0;orthogonalLoop=1;jettySize=auto;html=1;entryX=1;entryY=0.75;entryDx=0;entryDy=0;jumpStyle=arc;" parent="1" source="EBgWATqBMwc3oVEpxPqy-3" target="EBgWATqBMwc3oVEpxPqy-16" edge="1">
          <mxGeometry relative="1" as="geometry">
            <mxPoint x="752.5" y="-1045" as="targetPoint" />
            <Array as="points">
              <mxPoint x="752.5" y="-1045" />
            </Array>
          </mxGeometry>
        </mxCell>
        <mxCell id="EBgWATqBMwc3oVEpxPqy-68" style="edgeStyle=orthogonalEdgeStyle;rounded=0;jumpStyle=arc;orthogonalLoop=1;jettySize=auto;html=1;exitX=1;exitY=0.5;exitDx=0;exitDy=0;entryX=0.5;entryY=1;entryDx=0;entryDy=0;strokeColor=#000000;fontSize=10;" parent="1" source="EBgWATqBMwc3oVEpxPqy-3" target="EBgWATqBMwc3oVEpxPqy-15" edge="1">
          <mxGeometry relative="1" as="geometry" />
        </mxCell>
        <mxCell id="EBgWATqBMwc3oVEpxPqy-3" value="CLK" style="ellipse;whiteSpace=wrap;html=1;aspect=fixed;" parent="1" vertex="1">
          <mxGeometry x="297.5" y="-1060" width="30" height="30" as="geometry" />
        </mxCell>
        <mxCell id="EBgWATqBMwc3oVEpxPqy-73" style="edgeStyle=orthogonalEdgeStyle;rounded=0;jumpStyle=arc;orthogonalLoop=1;jettySize=auto;html=1;exitX=1;exitY=0.5;exitDx=0;exitDy=0;entryX=0.153;entryY=1;entryDx=0;entryDy=0;entryPerimeter=0;strokeColor=#000000;fontSize=10;" parent="1" source="EBgWATqBMwc3oVEpxPqy-15" target="EBgWATqBMwc3oVEpxPqy-38" edge="1">
          <mxGeometry relative="1" as="geometry" />
        </mxCell>
        <mxCell id="EBgWATqBMwc3oVEpxPqy-15" value="DATA MEMORY" style="rounded=0;whiteSpace=wrap;html=1;fillColor=#d5e8d4;strokeColor=#82b366;" parent="1" vertex="1">
          <mxGeometry x="1062.5" y="-1332" width="130" height="162" as="geometry" />
        </mxCell>
        <mxCell id="EBgWATqBMwc3oVEpxPqy-78" style="edgeStyle=orthogonalEdgeStyle;rounded=0;jumpStyle=arc;orthogonalLoop=1;jettySize=auto;html=1;exitX=0.75;exitY=0;exitDx=0;exitDy=0;strokeColor=#000000;fontSize=10;entryX=0;entryY=0.815;entryDx=0;entryDy=0;entryPerimeter=0;" parent="1" source="EBgWATqBMwc3oVEpxPqy-16" target="EBgWATqBMwc3oVEpxPqy-15" edge="1">
          <mxGeometry relative="1" as="geometry">
            <mxPoint x="1032.5" y="-1200" as="targetPoint" />
            <Array as="points">
              <mxPoint x="862.5" y="-1210" />
              <mxPoint x="862.5" y="-1140" />
              <mxPoint x="1022.5" y="-1140" />
              <mxPoint x="1022.5" y="-1200" />
            </Array>
          </mxGeometry>
        </mxCell>
        <mxCell id="EBgWATqBMwc3oVEpxPqy-80" style="edgeStyle=orthogonalEdgeStyle;rounded=0;jumpStyle=arc;orthogonalLoop=1;jettySize=auto;html=1;exitX=0.75;exitY=0;exitDx=0;exitDy=0;entryX=0.325;entryY=1;entryDx=0;entryDy=0;entryPerimeter=0;strokeColor=#000000;fontSize=10;" parent="1" source="EBgWATqBMwc3oVEpxPqy-16" target="EBgWATqBMwc3oVEpxPqy-29" edge="1">
          <mxGeometry relative="1" as="geometry" />
        </mxCell>
        <mxCell id="EBgWATqBMwc3oVEpxPqy-16" value="REGISTER FILE" style="rounded=0;whiteSpace=wrap;html=1;direction=south;fillColor=#d5e8d4;strokeColor=#82b366;" parent="1" vertex="1">
          <mxGeometry x="722.5" y="-1330" width="120" height="160" as="geometry" />
        </mxCell>
        <mxCell id="EBgWATqBMwc3oVEpxPqy-40" style="edgeStyle=orthogonalEdgeStyle;rounded=0;orthogonalLoop=1;jettySize=auto;html=1;entryX=0.656;entryY=1.013;entryDx=0;entryDy=0;entryPerimeter=0;jumpStyle=arc;" parent="1" source="EBgWATqBMwc3oVEpxPqy-18" target="EBgWATqBMwc3oVEpxPqy-38" edge="1">
          <mxGeometry relative="1" as="geometry">
            <mxPoint x="1302.5" y="-1220" as="targetPoint" />
            <Array as="points">
              <mxPoint x="1042.5" y="-1251" />
              <mxPoint x="1042.5" y="-1150" />
              <mxPoint x="1212.5" y="-1150" />
              <mxPoint x="1212.5" y="-1220" />
            </Array>
          </mxGeometry>
        </mxCell>
        <mxCell id="EBgWATqBMwc3oVEpxPqy-67" style="edgeStyle=orthogonalEdgeStyle;rounded=0;jumpStyle=arc;orthogonalLoop=1;jettySize=auto;html=1;exitX=1;exitY=0.5;exitDx=0;exitDy=0;exitPerimeter=0;entryX=0;entryY=0.5;entryDx=0;entryDy=0;strokeColor=#000000;fontSize=10;" parent="1" source="EBgWATqBMwc3oVEpxPqy-18" target="EBgWATqBMwc3oVEpxPqy-15" edge="1">
          <mxGeometry relative="1" as="geometry" />
        </mxCell>
        <mxCell id="EBgWATqBMwc3oVEpxPqy-83" style="edgeStyle=orthogonalEdgeStyle;rounded=0;jumpStyle=arc;orthogonalLoop=1;jettySize=auto;html=1;exitX=0;exitY=0;exitDx=35;exitDy=0;exitPerimeter=0;entryX=0.408;entryY=0.994;entryDx=0;entryDy=0;entryPerimeter=0;strokeColor=#000000;fontSize=10;" parent="1" source="EBgWATqBMwc3oVEpxPqy-18" target="EBgWATqBMwc3oVEpxPqy-74" edge="1">
          <mxGeometry relative="1" as="geometry" />
        </mxCell>
        <mxCell id="EBgWATqBMwc3oVEpxPqy-18" value="&lt;div style=&quot;text-align: right&quot;&gt;&lt;span&gt;ALU&lt;/span&gt;&lt;/div&gt;" style="html=1;shadow=0;dashed=0;align=center;verticalAlign=middle;shape=mxgraph.arrows2.arrow;dy=0;dx=30;notch=30;" parent="1" vertex="1">
          <mxGeometry x="1142.5" y="-1150" width="100" height="158" as="geometry" />
        </mxCell>
        <mxCell id="EBgWATqBMwc3oVEpxPqy-21" value="" style="edgeStyle=orthogonalEdgeStyle;rounded=0;orthogonalLoop=1;jettySize=auto;html=1;" parent="1" source="EBgWATqBMwc3oVEpxPqy-19" target="EBgWATqBMwc3oVEpxPqy-16" edge="1">
          <mxGeometry relative="1" as="geometry">
            <Array as="points">
              <mxPoint x="682.5" y="-1200" />
              <mxPoint x="682.5" y="-1200" />
            </Array>
          </mxGeometry>
        </mxCell>
        <mxCell id="EBgWATqBMwc3oVEpxPqy-19" value="0&lt;br&gt;1&lt;br&gt;" style="shape=trapezoid;perimeter=trapezoidPerimeter;whiteSpace=wrap;html=1;direction=south;fillColor=#dae8fc;strokeColor=#6c8ebf;" parent="1" vertex="1">
          <mxGeometry x="662.5" y="-1229.5" width="30" height="60" as="geometry" />
        </mxCell>
        <mxCell id="EBgWATqBMwc3oVEpxPqy-43" style="edgeStyle=orthogonalEdgeStyle;rounded=0;orthogonalLoop=1;jettySize=auto;html=1;jumpStyle=arc;" parent="1" source="EBgWATqBMwc3oVEpxPqy-26" target="EBgWATqBMwc3oVEpxPqy-29" edge="1">
          <mxGeometry relative="1" as="geometry">
            <mxPoint x="862.5" y="-1190" as="targetPoint" />
            <Array as="points">
              <mxPoint x="862.5" y="-1085" />
              <mxPoint x="862.5" y="-1190" />
            </Array>
          </mxGeometry>
        </mxCell>
        <mxCell id="5lNpF_FlYQscU_q7ITsC-37" style="edgeStyle=orthogonalEdgeStyle;rounded=0;orthogonalLoop=1;jettySize=auto;html=1;exitX=1;exitY=0.5;exitDx=0;exitDy=0;entryX=0.098;entryY=0.714;entryDx=0;entryDy=0;strokeColor=#000000;fontColor=#FF0000;entryPerimeter=0;jumpStyle=arc;" parent="1" source="EBgWATqBMwc3oVEpxPqy-26" target="5lNpF_FlYQscU_q7ITsC-30" edge="1">
          <mxGeometry relative="1" as="geometry">
            <Array as="points">
              <mxPoint x="863.5" y="-1085" />
            </Array>
          </mxGeometry>
        </mxCell>
        <mxCell id="EBgWATqBMwc3oVEpxPqy-26" value="SIGN EXTEND" style="ellipse;whiteSpace=wrap;html=1;" parent="1" vertex="1">
          <mxGeometry x="772.5" y="-1110" width="70" height="50" as="geometry" />
        </mxCell>
        <mxCell id="EBgWATqBMwc3oVEpxPqy-33" style="edgeStyle=orthogonalEdgeStyle;rounded=0;orthogonalLoop=1;jettySize=auto;html=1;entryX=0.397;entryY=1;entryDx=0;entryDy=0;entryPerimeter=0;" parent="1" source="EBgWATqBMwc3oVEpxPqy-29" target="EBgWATqBMwc3oVEpxPqy-18" edge="1">
          <mxGeometry relative="1" as="geometry">
            <mxPoint x="972.5" y="-1160" as="targetPoint" />
            <Array as="points">
              <mxPoint x="922.5" y="-1200" />
              <mxPoint x="922.5" y="-1150" />
              <mxPoint x="972.5" y="-1150" />
            </Array>
          </mxGeometry>
        </mxCell>
        <mxCell id="EBgWATqBMwc3oVEpxPqy-29" value="0&lt;br&gt;1&lt;br&gt;" style="shape=trapezoid;perimeter=trapezoidPerimeter;whiteSpace=wrap;html=1;direction=south;fillColor=#dae8fc;strokeColor=#6c8ebf;" parent="1" vertex="1">
          <mxGeometry x="882.5" y="-1229.5" width="30" height="60" as="geometry" />
        </mxCell>
        <mxCell id="EBgWATqBMwc3oVEpxPqy-64" style="edgeStyle=orthogonalEdgeStyle;rounded=0;jumpStyle=arc;orthogonalLoop=1;jettySize=auto;html=1;exitX=0.5;exitY=0;exitDx=0;exitDy=0;strokeColor=#000000;fontSize=10;entryX=1;entryY=0.25;entryDx=0;entryDy=0;" parent="1" source="EBgWATqBMwc3oVEpxPqy-38" target="EBgWATqBMwc3oVEpxPqy-16" edge="1">
          <mxGeometry relative="1" as="geometry">
            <mxPoint x="812.5" y="-1130" as="targetPoint" />
            <Array as="points">
              <mxPoint x="1292.5" y="-1230" />
              <mxPoint x="1292.5" y="-1130" />
              <mxPoint x="812.5" y="-1130" />
            </Array>
          </mxGeometry>
        </mxCell>
        <mxCell id="EBgWATqBMwc3oVEpxPqy-38" value="0&lt;br&gt;1&lt;br&gt;" style="shape=trapezoid;perimeter=trapezoidPerimeter;whiteSpace=wrap;html=1;direction=south;fillColor=#dae8fc;strokeColor=#6c8ebf;" parent="1" vertex="1">
          <mxGeometry x="1252.5" y="-1260" width="30" height="60" as="geometry" />
        </mxCell>
        <mxCell id="EBgWATqBMwc3oVEpxPqy-81" style="edgeStyle=orthogonalEdgeStyle;rounded=0;jumpStyle=arc;orthogonalLoop=1;jettySize=auto;html=1;exitX=0.5;exitY=1;exitDx=0;exitDy=0;entryX=0;entryY=0.5;entryDx=0;entryDy=0;strokeColor=#FF3333;fontSize=10;" parent="1" source="EBgWATqBMwc3oVEpxPqy-48" target="EBgWATqBMwc3oVEpxPqy-16" edge="1">
          <mxGeometry relative="1" as="geometry" />
        </mxCell>
        <mxCell id="EBgWATqBMwc3oVEpxPqy-82" style="edgeStyle=orthogonalEdgeStyle;rounded=0;jumpStyle=arc;orthogonalLoop=1;jettySize=auto;html=1;entryX=0;entryY=0.5;entryDx=0;entryDy=0;strokeColor=#FF3333;fontSize=10;" parent="1" source="EBgWATqBMwc3oVEpxPqy-48" target="EBgWATqBMwc3oVEpxPqy-19" edge="1">
          <mxGeometry relative="1" as="geometry" />
        </mxCell>
        <mxCell id="EBgWATqBMwc3oVEpxPqy-84" style="edgeStyle=orthogonalEdgeStyle;rounded=0;jumpStyle=arc;orthogonalLoop=1;jettySize=auto;html=1;entryX=0.007;entryY=0.625;entryDx=0;entryDy=0;entryPerimeter=0;strokeColor=#FF0000;fontSize=10;" parent="1" source="EBgWATqBMwc3oVEpxPqy-48" target="EBgWATqBMwc3oVEpxPqy-75" edge="1">
          <mxGeometry relative="1" as="geometry">
            <Array as="points">
              <mxPoint x="862.5" y="-1443" />
              <mxPoint x="862.5" y="-1443" />
            </Array>
          </mxGeometry>
        </mxCell>
        <mxCell id="EBgWATqBMwc3oVEpxPqy-85" style="edgeStyle=orthogonalEdgeStyle;rounded=0;jumpStyle=arc;orthogonalLoop=1;jettySize=auto;html=1;exitX=1;exitY=0.5;exitDx=0;exitDy=0;entryX=0;entryY=0.5;entryDx=0;entryDy=0;strokeColor=#FF0000;fontSize=10;" parent="1" source="EBgWATqBMwc3oVEpxPqy-48" target="EBgWATqBMwc3oVEpxPqy-29" edge="1">
          <mxGeometry relative="1" as="geometry" />
        </mxCell>
        <mxCell id="5lNpF_FlYQscU_q7ITsC-12" style="edgeStyle=orthogonalEdgeStyle;rounded=0;orthogonalLoop=1;jettySize=auto;html=1;exitX=1;exitY=0;exitDx=0;exitDy=0;entryX=0;entryY=0.5;entryDx=0;entryDy=0;fontColor=#FF0000;strokeColor=#FF0000;jumpStyle=arc;" parent="1" source="EBgWATqBMwc3oVEpxPqy-48" target="EBgWATqBMwc3oVEpxPqy-38" edge="1">
          <mxGeometry relative="1" as="geometry">
            <mxPoint x="862.5" y="-1490" as="targetPoint" />
            <Array as="points">
              <mxPoint x="852.5" y="-1459" />
              <mxPoint x="852.5" y="-1490" />
              <mxPoint x="1267.5" y="-1490" />
            </Array>
          </mxGeometry>
        </mxCell>
        <mxCell id="5lNpF_FlYQscU_q7ITsC-25" style="edgeStyle=orthogonalEdgeStyle;rounded=0;orthogonalLoop=1;jettySize=auto;html=1;exitX=0.5;exitY=0;exitDx=0;exitDy=0;entryX=0;entryY=0.25;entryDx=0;entryDy=0;strokeColor=#FF0000;fontColor=#FF0000;" parent="1" source="EBgWATqBMwc3oVEpxPqy-48" target="5lNpF_FlYQscU_q7ITsC-18" edge="1">
          <mxGeometry relative="1" as="geometry">
            <Array as="points">
              <mxPoint x="782.5" y="-1520" />
              <mxPoint x="932.5" y="-1520" />
            </Array>
          </mxGeometry>
        </mxCell>
        <mxCell id="5lNpF_FlYQscU_q7ITsC-44" style="edgeStyle=orthogonalEdgeStyle;rounded=0;orthogonalLoop=1;jettySize=auto;html=1;exitX=0;exitY=0;exitDx=0;exitDy=0;strokeColor=#FF0000;fontColor=#FF0000;entryX=0;entryY=0.5;entryDx=0;entryDy=0;jumpStyle=arc;" parent="1" source="EBgWATqBMwc3oVEpxPqy-48" target="5lNpF_FlYQscU_q7ITsC-31" edge="1">
          <mxGeometry relative="1" as="geometry">
            <mxPoint x="562.5" y="-1458.6666666666665" as="targetPoint" />
            <Array as="points">
              <mxPoint x="754.5" y="-1450" />
              <mxPoint x="447.5" y="-1450" />
            </Array>
          </mxGeometry>
        </mxCell>
        <mxCell id="EBgWATqBMwc3oVEpxPqy-48" value="CONTROL" style="ellipse;whiteSpace=wrap;html=1;aspect=fixed;fillColor=#fff2cc;strokeColor=#d6b656;" parent="1" vertex="1">
          <mxGeometry x="742.5" y="-1470" width="80" height="80" as="geometry" />
        </mxCell>
        <mxCell id="EBgWATqBMwc3oVEpxPqy-52" value="&lt;font style=&quot;font-size: 10px&quot;&gt;Rd&lt;/font&gt;" style="text;html=1;resizable=0;points=[];autosize=1;align=left;verticalAlign=top;spacingTop=-4;" parent="1" vertex="1">
          <mxGeometry x="632.5" y="-1199.5" width="30" height="20" as="geometry" />
        </mxCell>
        <mxCell id="EBgWATqBMwc3oVEpxPqy-55" value="" style="endArrow=classic;html=1;strokeColor=#000000;rounded=0;entryX=0.325;entryY=0.971;entryDx=0;entryDy=0;entryPerimeter=0;" parent="1" target="EBgWATqBMwc3oVEpxPqy-19" edge="1">
          <mxGeometry width="50" height="50" relative="1" as="geometry">
            <mxPoint x="647.5" y="-1250" as="sourcePoint" />
            <mxPoint x="652.5" y="-1210" as="targetPoint" />
            <Array as="points">
              <mxPoint x="647.5" y="-1210" />
            </Array>
          </mxGeometry>
        </mxCell>
        <mxCell id="EBgWATqBMwc3oVEpxPqy-56" value="&lt;font style=&quot;font-size: 10px&quot;&gt;Rt&lt;/font&gt;" style="text;html=1;resizable=0;points=[];autosize=1;align=left;verticalAlign=top;spacingTop=-4;fontSize=10;" parent="1" vertex="1">
          <mxGeometry x="652.5" y="-1263" width="30" height="10" as="geometry" />
        </mxCell>
        <mxCell id="EBgWATqBMwc3oVEpxPqy-58" value="" style="endArrow=classic;html=1;strokeColor=#000000;fontSize=10;entryX=0;entryY=0.75;entryDx=0;entryDy=0;jumpStyle=arc;" parent="1" target="EBgWATqBMwc3oVEpxPqy-63" edge="1">
          <mxGeometry width="50" height="50" relative="1" as="geometry">
            <mxPoint x="632.5" y="-1251" as="sourcePoint" />
            <mxPoint x="632.5" y="-1390" as="targetPoint" />
          </mxGeometry>
        </mxCell>
        <mxCell id="EBgWATqBMwc3oVEpxPqy-59" value="" style="endArrow=classic;html=1;strokeColor=#000000;fontSize=10;entryX=0.188;entryY=1.003;entryDx=0;entryDy=0;entryPerimeter=0;rounded=0;jumpStyle=arc;" parent="1" target="EBgWATqBMwc3oVEpxPqy-16" edge="1">
          <mxGeometry width="50" height="50" relative="1" as="geometry">
            <mxPoint x="632.5" y="-1300" as="sourcePoint" />
            <mxPoint x="702.5" y="-1340" as="targetPoint" />
          </mxGeometry>
        </mxCell>
        <mxCell id="EBgWATqBMwc3oVEpxPqy-60" value="Rs" style="text;html=1;resizable=0;points=[];autosize=1;align=left;verticalAlign=top;spacingTop=-4;fontSize=10;" parent="1" vertex="1">
          <mxGeometry x="652.5" y="-1316" width="30" height="10" as="geometry" />
        </mxCell>
        <mxCell id="5lNpF_FlYQscU_q7ITsC-53" style="edgeStyle=orthogonalEdgeStyle;rounded=0;jumpStyle=arc;orthogonalLoop=1;jettySize=auto;html=1;exitX=1;exitY=0.5;exitDx=0;exitDy=0;entryX=0.25;entryY=1;entryDx=0;entryDy=0;strokeColor=#000000;fontColor=#FF0000;" parent="1" source="EBgWATqBMwc3oVEpxPqy-63" target="5lNpF_FlYQscU_q7ITsC-31" edge="1">
          <mxGeometry relative="1" as="geometry">
            <Array as="points">
              <mxPoint x="627.5" y="-1695" />
            </Array>
          </mxGeometry>
        </mxCell>
        <mxCell id="EBgWATqBMwc3oVEpxPqy-63" value="ADDER" style="shape=step;perimeter=stepPerimeter;whiteSpace=wrap;html=1;fixedSize=1;fontSize=10;direction=north;" parent="1" vertex="1">
          <mxGeometry x="602.5" y="-1680" width="50" height="90" as="geometry" />
        </mxCell>
        <mxCell id="5lNpF_FlYQscU_q7ITsC-24" style="edgeStyle=orthogonalEdgeStyle;rounded=0;orthogonalLoop=1;jettySize=auto;html=1;exitX=0.25;exitY=0;exitDx=0;exitDy=0;entryX=-0.04;entryY=0.817;entryDx=0;entryDy=0;entryPerimeter=0;strokeColor=#FF0000;fontColor=#FF0000;" parent="1" source="EBgWATqBMwc3oVEpxPqy-74" target="5lNpF_FlYQscU_q7ITsC-18" edge="1">
          <mxGeometry relative="1" as="geometry" />
        </mxCell>
        <mxCell id="5lNpF_FlYQscU_q7ITsC-27" style="edgeStyle=orthogonalEdgeStyle;rounded=0;orthogonalLoop=1;jettySize=auto;html=1;exitX=0.75;exitY=0;exitDx=0;exitDy=0;entryX=0.25;entryY=1;entryDx=0;entryDy=0;strokeColor=#FF0000;fontColor=#FF0000;" parent="1" source="EBgWATqBMwc3oVEpxPqy-74" target="EBgWATqBMwc3oVEpxPqy-75" edge="1">
          <mxGeometry relative="1" as="geometry" />
        </mxCell>
        <mxCell id="EBgWATqBMwc3oVEpxPqy-74" value="ALU STATUS" style="rounded=0;whiteSpace=wrap;html=1;fontSize=10;fillColor=#d5e8d4;strokeColor=#82b366;" parent="1" vertex="1">
          <mxGeometry x="932.5" y="-1400" width="90" height="40" as="geometry" />
        </mxCell>
        <mxCell id="5lNpF_FlYQscU_q7ITsC-28" style="edgeStyle=orthogonalEdgeStyle;rounded=0;orthogonalLoop=1;jettySize=auto;html=1;exitX=0.5;exitY=0;exitDx=0;exitDy=0;strokeColor=#FF0000;fontColor=#FF0000;" parent="1" source="EBgWATqBMwc3oVEpxPqy-75" edge="1">
          <mxGeometry relative="1" as="geometry">
            <mxPoint x="1020.0714285714284" y="-1490.047619047619" as="targetPoint" />
          </mxGeometry>
        </mxCell>
        <mxCell id="5lNpF_FlYQscU_q7ITsC-56" style="edgeStyle=orthogonalEdgeStyle;rounded=0;jumpStyle=arc;orthogonalLoop=1;jettySize=auto;html=1;strokeColor=#FF0000;fontColor=#FF0000;entryX=0.306;entryY=-0.007;entryDx=0;entryDy=0;entryPerimeter=0;" parent="1" source="EBgWATqBMwc3oVEpxPqy-75" target="EBgWATqBMwc3oVEpxPqy-15" edge="1">
          <mxGeometry relative="1" as="geometry">
            <mxPoint x="1102.5" y="-1340" as="targetPoint" />
            <Array as="points">
              <mxPoint x="1102.5" y="-1448" />
            </Array>
          </mxGeometry>
        </mxCell>
        <mxCell id="5lNpF_FlYQscU_q7ITsC-57" style="edgeStyle=orthogonalEdgeStyle;rounded=0;jumpStyle=arc;orthogonalLoop=1;jettySize=auto;html=1;exitX=1;exitY=0.5;exitDx=0;exitDy=0;strokeColor=#FF0000;fontColor=#FF0000;entryX=0.788;entryY=-0.002;entryDx=0;entryDy=0;entryPerimeter=0;" parent="1" source="EBgWATqBMwc3oVEpxPqy-75" target="EBgWATqBMwc3oVEpxPqy-15" edge="1">
          <mxGeometry relative="1" as="geometry">
            <mxPoint x="1162.5" y="-1448.142857142857" as="targetPoint" />
          </mxGeometry>
        </mxCell>
        <mxCell id="EBgWATqBMwc3oVEpxPqy-75" value="EXCEPTION HANDLE" style="rounded=0;whiteSpace=wrap;html=1;fontSize=10;fillColor=#d5e8d4;strokeColor=#82b366;" parent="1" vertex="1">
          <mxGeometry x="972.5" y="-1468" width="95" height="40" as="geometry" />
        </mxCell>
        <mxCell id="5lNpF_FlYQscU_q7ITsC-1" value="RegDst" style="text;html=1;resizable=0;points=[];autosize=1;align=left;verticalAlign=top;spacingTop=-4;" parent="1" vertex="1">
          <mxGeometry x="677.5" y="-1451" width="60" height="20" as="geometry" />
        </mxCell>
        <mxCell id="5lNpF_FlYQscU_q7ITsC-2" value="RegWrite" style="text;html=1;resizable=0;points=[];autosize=1;align=left;verticalAlign=top;spacingTop=-4;" parent="1" vertex="1">
          <mxGeometry x="782.5" y="-1375" width="70" height="20" as="geometry" />
        </mxCell>
        <mxCell id="5lNpF_FlYQscU_q7ITsC-3" value="Exception" style="text;html=1;resizable=0;points=[];autosize=1;align=left;verticalAlign=top;spacingTop=-4;" parent="1" vertex="1">
          <mxGeometry x="877.5" y="-1461" width="70" height="20" as="geometry" />
        </mxCell>
        <mxCell id="5lNpF_FlYQscU_q7ITsC-7" value="ALUscr" style="text;html=1;resizable=0;points=[];autosize=1;align=left;verticalAlign=top;spacingTop=-4;" parent="1" vertex="1">
          <mxGeometry x="852.5" y="-1350" width="50" height="20" as="geometry" />
        </mxCell>
        <mxCell id="5lNpF_FlYQscU_q7ITsC-13" value="MemToReg" style="text;html=1;resizable=0;points=[];autosize=1;align=left;verticalAlign=top;spacingTop=-4;horizontal=0;" parent="1" vertex="1">
          <mxGeometry x="1242.5" y="-1350" width="80" height="20" as="geometry" />
        </mxCell>
        <mxCell id="5lNpF_FlYQscU_q7ITsC-14" value="" style="endArrow=classic;html=1;strokeColor=#FF0000;rounded=0;" parent="1" edge="1">
          <mxGeometry width="50" height="50" relative="1" as="geometry">
            <mxPoint x="1002.5" y="-1490" as="sourcePoint" />
            <mxPoint x="1002.5" y="-1470" as="targetPoint" />
            <Array as="points">
              <mxPoint x="1002.5" y="-1480" />
            </Array>
          </mxGeometry>
        </mxCell>
        <mxCell id="5lNpF_FlYQscU_q7ITsC-15" value="" style="endArrow=classic;html=1;strokeColor=#FF0000;" parent="1" edge="1">
          <mxGeometry width="50" height="50" relative="1" as="geometry">
            <mxPoint x="1052.5" y="-1487.5" as="sourcePoint" />
            <mxPoint x="1052.5" y="-1467.5" as="targetPoint" />
          </mxGeometry>
        </mxCell>
        <mxCell id="5lNpF_FlYQscU_q7ITsC-16" value="MemRead" style="text;html=1;resizable=0;points=[];autosize=1;align=left;verticalAlign=top;spacingTop=-4;direction=north;horizontal=0;" parent="1" vertex="1">
          <mxGeometry x="1077.5" y="-1431" width="20" height="70" as="geometry" />
        </mxCell>
        <mxCell id="5lNpF_FlYQscU_q7ITsC-17" value="MemWrite" style="text;html=1;resizable=0;points=[];autosize=1;align=left;verticalAlign=top;spacingTop=-4;horizontal=0;direction=south;" parent="1" vertex="1">
          <mxGeometry x="1142.5" y="-1428" width="20" height="70" as="geometry" />
        </mxCell>
        <mxCell id="5lNpF_FlYQscU_q7ITsC-50" style="edgeStyle=orthogonalEdgeStyle;rounded=0;jumpStyle=arc;orthogonalLoop=1;jettySize=auto;html=1;entryX=0.938;entryY=0.546;entryDx=0;entryDy=0;entryPerimeter=0;strokeColor=#000000;fontColor=#FF0000;" parent="1" source="5lNpF_FlYQscU_q7ITsC-18" target="5lNpF_FlYQscU_q7ITsC-32" edge="1">
          <mxGeometry relative="1" as="geometry">
            <Array as="points">
              <mxPoint x="942.5" y="-1709" />
              <mxPoint x="859.5" y="-1709" />
            </Array>
          </mxGeometry>
        </mxCell>
        <mxCell id="5lNpF_FlYQscU_q7ITsC-18" value="" style="shape=delay;whiteSpace=wrap;html=1;fontColor=#FF0000;direction=north;" parent="1" vertex="1">
          <mxGeometry x="922.5" y="-1700" width="40" height="40" as="geometry" />
        </mxCell>
        <mxCell id="5lNpF_FlYQscU_q7ITsC-26" value="&lt;font color=&quot;#000000&quot;&gt;Branch&lt;/font&gt;" style="text;html=1;resizable=0;points=[];autosize=1;align=left;verticalAlign=top;spacingTop=-4;fontColor=#FF0000;" parent="1" vertex="1">
          <mxGeometry x="807.5" y="-1515" width="50" height="20" as="geometry" />
        </mxCell>
        <mxCell id="5lNpF_FlYQscU_q7ITsC-39" style="edgeStyle=orthogonalEdgeStyle;rounded=0;orthogonalLoop=1;jettySize=auto;html=1;exitX=1;exitY=0.5;exitDx=0;exitDy=0;strokeColor=#000000;fontColor=#FF0000;entryX=0.116;entryY=0.28;entryDx=0;entryDy=0;entryPerimeter=0;jumpStyle=arc;" parent="1" source="5lNpF_FlYQscU_q7ITsC-29" target="5lNpF_FlYQscU_q7ITsC-30" edge="1">
          <mxGeometry relative="1" as="geometry">
            <mxPoint x="842.5" y="-1535" as="targetPoint" />
            <Array as="points">
              <mxPoint x="841.5" y="-1535" />
            </Array>
          </mxGeometry>
        </mxCell>
        <mxCell id="5lNpF_FlYQscU_q7ITsC-40" style="edgeStyle=orthogonalEdgeStyle;rounded=0;orthogonalLoop=1;jettySize=auto;html=1;exitX=1;exitY=0.5;exitDx=0;exitDy=0;strokeColor=#000000;fontColor=#FF0000;entryX=0.132;entryY=0.296;entryDx=0;entryDy=0;entryPerimeter=0;" parent="1" source="5lNpF_FlYQscU_q7ITsC-29" target="EBgWATqBMwc3oVEpxPqy-63" edge="1">
          <mxGeometry relative="1" as="geometry">
            <mxPoint x="622.5" y="-1530" as="targetPoint" />
            <Array as="points">
              <mxPoint x="617.5" y="-1535" />
            </Array>
          </mxGeometry>
        </mxCell>
        <mxCell id="5lNpF_FlYQscU_q7ITsC-52" style="edgeStyle=orthogonalEdgeStyle;rounded=0;jumpStyle=arc;orthogonalLoop=1;jettySize=auto;html=1;exitX=1;exitY=0.5;exitDx=0;exitDy=0;entryX=0.25;entryY=1;entryDx=0;entryDy=0;strokeColor=#000000;fontColor=#FF0000;" parent="1" source="5lNpF_FlYQscU_q7ITsC-29" target="5lNpF_FlYQscU_q7ITsC-32" edge="1">
          <mxGeometry relative="1" as="geometry" />
        </mxCell>
        <mxCell id="5lNpF_FlYQscU_q7ITsC-29" value="ADDER" style="shape=step;perimeter=stepPerimeter;whiteSpace=wrap;html=1;fixedSize=1;fontSize=10;direction=east;" parent="1" vertex="1">
          <mxGeometry x="472.5" y="-1560" width="90" height="50" as="geometry" />
        </mxCell>
        <mxCell id="5lNpF_FlYQscU_q7ITsC-51" style="edgeStyle=orthogonalEdgeStyle;rounded=0;jumpStyle=arc;orthogonalLoop=1;jettySize=auto;html=1;exitX=1;exitY=0.5;exitDx=0;exitDy=0;entryX=0.75;entryY=1;entryDx=0;entryDy=0;strokeColor=#000000;fontColor=#FF0000;" parent="1" source="5lNpF_FlYQscU_q7ITsC-30" target="5lNpF_FlYQscU_q7ITsC-32" edge="1">
          <mxGeometry relative="1" as="geometry">
            <Array as="points">
              <mxPoint x="852.5" y="-1675" />
              <mxPoint x="782.5" y="-1675" />
            </Array>
          </mxGeometry>
        </mxCell>
        <mxCell id="5lNpF_FlYQscU_q7ITsC-30" value="ADDER" style="shape=step;perimeter=stepPerimeter;whiteSpace=wrap;html=1;fixedSize=1;fontSize=10;direction=north;" parent="1" vertex="1">
          <mxGeometry x="827.5" y="-1665" width="50" height="90" as="geometry" />
        </mxCell>
        <mxCell id="5lNpF_FlYQscU_q7ITsC-31" value="0&lt;br&gt;1&lt;br&gt;" style="shape=trapezoid;perimeter=trapezoidPerimeter;whiteSpace=wrap;html=1;direction=north;fillColor=#dae8fc;strokeColor=#6c8ebf;" parent="1" vertex="1">
          <mxGeometry x="432.5" y="-1740" width="30" height="60" as="geometry" />
        </mxCell>
        <mxCell id="5lNpF_FlYQscU_q7ITsC-54" style="edgeStyle=orthogonalEdgeStyle;rounded=0;jumpStyle=arc;orthogonalLoop=1;jettySize=auto;html=1;entryX=0.75;entryY=1;entryDx=0;entryDy=0;strokeColor=#000000;fontColor=#FF0000;exitX=0.5;exitY=0;exitDx=0;exitDy=0;" parent="1" source="5lNpF_FlYQscU_q7ITsC-32" target="5lNpF_FlYQscU_q7ITsC-31" edge="1">
          <mxGeometry relative="1" as="geometry">
            <mxPoint x="767.5" y="-1740" as="sourcePoint" />
            <Array as="points">
              <mxPoint x="767.5" y="-1740" />
              <mxPoint x="542.5" y="-1740" />
              <mxPoint x="542.5" y="-1725" />
            </Array>
          </mxGeometry>
        </mxCell>
        <mxCell id="5lNpF_FlYQscU_q7ITsC-32" value="0&amp;nbsp; &amp;nbsp; &amp;nbsp;1&lt;br&gt;" style="shape=trapezoid;perimeter=trapezoidPerimeter;whiteSpace=wrap;html=1;direction=east;fillColor=#dae8fc;strokeColor=#6c8ebf;" parent="1" vertex="1">
          <mxGeometry x="737.5" y="-1725" width="60" height="30" as="geometry" />
        </mxCell>
        <mxCell id="5lNpF_FlYQscU_q7ITsC-34" value="" style="endArrow=classic;html=1;strokeColor=#000000;fontColor=#FF0000;entryX=0.074;entryY=0.779;entryDx=0;entryDy=0;entryPerimeter=0;jumpStyle=arc;" parent="1" target="5lNpF_FlYQscU_q7ITsC-29" edge="1">
          <mxGeometry width="50" height="50" relative="1" as="geometry">
            <mxPoint x="412.5" y="-1521" as="sourcePoint" />
            <mxPoint x="462.5" y="-1530" as="targetPoint" />
          </mxGeometry>
        </mxCell>
        <mxCell id="5lNpF_FlYQscU_q7ITsC-35" value="&lt;font color=&quot;#000000&quot;&gt;4&lt;/font&gt;" style="text;html=1;resizable=0;points=[];autosize=1;align=left;verticalAlign=top;spacingTop=-4;fontColor=#FF0000;" parent="1" vertex="1">
          <mxGeometry x="412.5" y="-1535" width="20" height="20" as="geometry" />
        </mxCell>
        <mxCell id="5lNpF_FlYQscU_q7ITsC-45" value="&lt;font color=&quot;#000000&quot;&gt;Jump&lt;/font&gt;" style="text;html=1;resizable=0;points=[];autosize=1;align=left;verticalAlign=top;spacingTop=-4;fontColor=#FF0000;" parent="1" vertex="1">
          <mxGeometry x="562.5" y="-1477.5" width="50" height="20" as="geometry" />
        </mxCell>
        <mxCell id="5lNpF_FlYQscU_q7ITsC-58" value="MemRead" style="text;html=1;resizable=0;points=[];autosize=1;align=left;verticalAlign=top;spacingTop=-4;direction=north;horizontal=0;" parent="1" vertex="1">
          <mxGeometry x="992.5" y="-1566" width="20" height="70" as="geometry" />
        </mxCell>
        <mxCell id="5lNpF_FlYQscU_q7ITsC-59" value="MemWrite" style="text;html=1;resizable=0;points=[];autosize=1;align=left;verticalAlign=top;spacingTop=-4;horizontal=0;direction=south;" parent="1" vertex="1">
          <mxGeometry x="1042.5" y="-1565" width="20" height="70" as="geometry" />
        </mxCell>
        <mxCell id="gmV4FLeOSdiEn-evFXXv-18" style="edgeStyle=orthogonalEdgeStyle;rounded=0;orthogonalLoop=1;jettySize=auto;html=1;exitX=1;exitY=0.5;exitDx=0;exitDy=0;" edge="1" parent="1" source="gmV4FLeOSdiEn-evFXXv-1">
          <mxGeometry relative="1" as="geometry">
            <mxPoint x="50" y="1070" as="targetPoint" />
            <Array as="points">
              <mxPoint y="1070" />
            </Array>
          </mxGeometry>
        </mxCell>
        <mxCell id="gmV4FLeOSdiEn-evFXXv-1" value="" style="rounded=0;whiteSpace=wrap;html=1;" vertex="1" parent="1">
          <mxGeometry x="-40" y="795" width="40" height="685" as="geometry" />
        </mxCell>
        <mxCell id="gmV4FLeOSdiEn-evFXXv-5" value="" style="edgeStyle=orthogonalEdgeStyle;rounded=0;orthogonalLoop=1;jettySize=auto;html=1;" edge="1" parent="1" source="gmV4FLeOSdiEn-evFXXv-2" target="gmV4FLeOSdiEn-evFXXv-1">
          <mxGeometry relative="1" as="geometry">
            <Array as="points">
              <mxPoint x="-60" y="1070" />
              <mxPoint x="-60" y="1070" />
            </Array>
          </mxGeometry>
        </mxCell>
        <mxCell id="gmV4FLeOSdiEn-evFXXv-2" value="INSTRUCTION MEMORY" style="rounded=0;whiteSpace=wrap;html=1;direction=south;fillColor=#dae8fc;strokeColor=#6c8ebf;" vertex="1" parent="1">
          <mxGeometry x="-280" y="960" width="160" height="220" as="geometry" />
        </mxCell>
        <mxCell id="gmV4FLeOSdiEn-evFXXv-4" value="" style="edgeStyle=orthogonalEdgeStyle;rounded=0;orthogonalLoop=1;jettySize=auto;html=1;" edge="1" parent="1" source="gmV4FLeOSdiEn-evFXXv-3" target="gmV4FLeOSdiEn-evFXXv-2">
          <mxGeometry relative="1" as="geometry">
            <Array as="points">
              <mxPoint x="-330" y="1070" />
              <mxPoint x="-330" y="1070" />
            </Array>
          </mxGeometry>
        </mxCell>
        <mxCell id="gmV4FLeOSdiEn-evFXXv-3" value="" style="rounded=0;whiteSpace=wrap;html=1;" vertex="1" parent="1">
          <mxGeometry x="-440" y="795" width="40" height="550" as="geometry" />
        </mxCell>
        <mxCell id="gmV4FLeOSdiEn-evFXXv-16" style="edgeStyle=orthogonalEdgeStyle;rounded=0;orthogonalLoop=1;jettySize=auto;html=1;exitX=1;exitY=0.5;exitDx=0;exitDy=0;fillColor=#d5e8d4;strokeColor=#82b366;" edge="1" parent="1">
          <mxGeometry relative="1" as="geometry">
            <mxPoint x="-710" y="1000" as="targetPoint" />
            <mxPoint x="-180" y="1270" as="sourcePoint" />
            <Array as="points">
              <mxPoint x="-120" y="1270" />
              <mxPoint x="-120" y="1410" />
              <mxPoint x="-880" y="1410" />
              <mxPoint x="-880" y="1000" />
            </Array>
          </mxGeometry>
        </mxCell>
        <mxCell id="gmV4FLeOSdiEn-evFXXv-6" value="ADDER" style="shape=step;perimeter=stepPerimeter;whiteSpace=wrap;html=1;fixedSize=1;fontSize=10;direction=east;" vertex="1" parent="1">
          <mxGeometry x="-280" y="1220" width="100" height="100" as="geometry" />
        </mxCell>
        <mxCell id="gmV4FLeOSdiEn-evFXXv-8" value="" style="endArrow=none;html=1;rounded=0;" edge="1" parent="1">
          <mxGeometry width="50" height="50" relative="1" as="geometry">
            <mxPoint x="-340" y="1240" as="sourcePoint" />
            <mxPoint x="-340" y="1070" as="targetPoint" />
          </mxGeometry>
        </mxCell>
        <mxCell id="gmV4FLeOSdiEn-evFXXv-9" value="" style="endArrow=none;html=1;rounded=0;entryX=0.07;entryY=0.196;entryDx=0;entryDy=0;entryPerimeter=0;" edge="1" parent="1" target="gmV4FLeOSdiEn-evFXXv-6">
          <mxGeometry width="50" height="50" relative="1" as="geometry">
            <mxPoint x="-340" y="1240" as="sourcePoint" />
            <mxPoint x="-290" y="1250" as="targetPoint" />
          </mxGeometry>
        </mxCell>
        <mxCell id="gmV4FLeOSdiEn-evFXXv-10" value="" style="endArrow=none;html=1;rounded=0;entryX=0.14;entryY=0.612;entryDx=0;entryDy=0;entryPerimeter=0;" edge="1" parent="1" target="gmV4FLeOSdiEn-evFXXv-6">
          <mxGeometry width="50" height="50" relative="1" as="geometry">
            <mxPoint x="-340" y="1280" as="sourcePoint" />
            <mxPoint x="-280" y="1280" as="targetPoint" />
          </mxGeometry>
        </mxCell>
        <mxCell id="gmV4FLeOSdiEn-evFXXv-11" value="00&lt;div&gt;&lt;br&gt;&lt;/div&gt;&lt;div&gt;&lt;br&gt;&lt;/div&gt;&lt;div&gt;&lt;div&gt;01&lt;/div&gt;&lt;div&gt;&lt;br&gt;&lt;/div&gt;&lt;div&gt;&lt;br&gt;&lt;/div&gt;&lt;div&gt;10&lt;/div&gt;&lt;div&gt;&lt;br&gt;&lt;/div&gt;&lt;div&gt;&lt;br&gt;&lt;/div&gt;&lt;div&gt;11&lt;/div&gt;&lt;/div&gt;" style="shape=trapezoid;perimeter=trapezoidPerimeter;whiteSpace=wrap;html=1;direction=south;fillColor=#dae8fc;strokeColor=#6c8ebf;" vertex="1" parent="1">
          <mxGeometry x="-660" y="950" width="90" height="220" as="geometry" />
        </mxCell>
        <mxCell id="gmV4FLeOSdiEn-evFXXv-12" value="" style="endArrow=none;html=1;rounded=0;" edge="1" parent="1">
          <mxGeometry width="50" height="50" relative="1" as="geometry">
            <mxPoint x="-710" y="1000" as="sourcePoint" />
            <mxPoint x="-660" y="1000" as="targetPoint" />
          </mxGeometry>
        </mxCell>
        <mxCell id="gmV4FLeOSdiEn-evFXXv-13" value="" style="endArrow=none;html=1;rounded=0;" edge="1" parent="1">
          <mxGeometry width="50" height="50" relative="1" as="geometry">
            <mxPoint x="-710" y="1040" as="sourcePoint" />
            <mxPoint x="-660" y="1040" as="targetPoint" />
          </mxGeometry>
        </mxCell>
        <mxCell id="gmV4FLeOSdiEn-evFXXv-14" value="" style="endArrow=none;html=1;rounded=0;" edge="1" parent="1">
          <mxGeometry width="50" height="50" relative="1" as="geometry">
            <mxPoint x="-710" y="1080" as="sourcePoint" />
            <mxPoint x="-660" y="1080" as="targetPoint" />
          </mxGeometry>
        </mxCell>
        <mxCell id="gmV4FLeOSdiEn-evFXXv-15" value="" style="endArrow=none;html=1;rounded=0;" edge="1" parent="1">
          <mxGeometry width="50" height="50" relative="1" as="geometry">
            <mxPoint x="-710" y="1120" as="sourcePoint" />
            <mxPoint x="-660" y="1120" as="targetPoint" />
          </mxGeometry>
        </mxCell>
        <mxCell id="gmV4FLeOSdiEn-evFXXv-17" value="4" style="text;html=1;align=center;verticalAlign=middle;whiteSpace=wrap;rounded=0;" vertex="1" parent="1">
          <mxGeometry x="-350" y="1255" width="60" height="30" as="geometry" />
        </mxCell>
        <mxCell id="gmV4FLeOSdiEn-evFXXv-19" value="REGISTER FILE" style="rounded=0;whiteSpace=wrap;html=1;direction=south;fillColor=#dae8fc;strokeColor=#6c8ebf;" vertex="1" parent="1">
          <mxGeometry x="120" y="930" width="200" height="230" as="geometry" />
        </mxCell>
        <mxCell id="gmV4FLeOSdiEn-evFXXv-20" value="" style="endArrow=none;html=1;rounded=0;" edge="1" parent="1">
          <mxGeometry width="50" height="50" relative="1" as="geometry">
            <mxPoint x="50" y="1280" as="sourcePoint" />
            <mxPoint x="50" y="860" as="targetPoint" />
          </mxGeometry>
        </mxCell>
        <mxCell id="gmV4FLeOSdiEn-evFXXv-21" value="" style="endArrow=none;html=1;rounded=0;" edge="1" parent="1">
          <mxGeometry width="50" height="50" relative="1" as="geometry">
            <mxPoint x="-120" y="1409" as="sourcePoint" />
            <mxPoint x="-40" y="1409" as="targetPoint" />
          </mxGeometry>
        </mxCell>
        <mxCell id="gmV4FLeOSdiEn-evFXXv-26" style="edgeStyle=orthogonalEdgeStyle;rounded=0;orthogonalLoop=1;jettySize=auto;html=1;" edge="1" parent="1" target="gmV4FLeOSdiEn-evFXXv-22">
          <mxGeometry relative="1" as="geometry">
            <mxPoint x="50" y="965" as="sourcePoint" />
          </mxGeometry>
        </mxCell>
        <mxCell id="gmV4FLeOSdiEn-evFXXv-22" value="A1" style="text;html=1;align=center;verticalAlign=middle;whiteSpace=wrap;rounded=0;" vertex="1" parent="1">
          <mxGeometry x="120" y="950" width="60" height="30" as="geometry" />
        </mxCell>
        <mxCell id="gmV4FLeOSdiEn-evFXXv-27" style="edgeStyle=orthogonalEdgeStyle;rounded=0;orthogonalLoop=1;jettySize=auto;html=1;exitX=0;exitY=0.5;exitDx=0;exitDy=0;entryX=0;entryY=0.5;entryDx=0;entryDy=0;" edge="1" parent="1" target="gmV4FLeOSdiEn-evFXXv-23">
          <mxGeometry relative="1" as="geometry">
            <mxPoint x="50" y="1004.848484848485" as="sourcePoint" />
          </mxGeometry>
        </mxCell>
        <mxCell id="gmV4FLeOSdiEn-evFXXv-23" value="A2" style="text;html=1;align=center;verticalAlign=middle;whiteSpace=wrap;rounded=0;" vertex="1" parent="1">
          <mxGeometry x="120" y="990" width="60" height="30" as="geometry" />
        </mxCell>
        <mxCell id="gmV4FLeOSdiEn-evFXXv-24" value="A3" style="text;html=1;align=center;verticalAlign=middle;whiteSpace=wrap;rounded=0;" vertex="1" parent="1">
          <mxGeometry x="120" y="1055" width="60" height="30" as="geometry" />
        </mxCell>
        <mxCell id="gmV4FLeOSdiEn-evFXXv-25" value="WD3" style="text;html=1;align=center;verticalAlign=middle;whiteSpace=wrap;rounded=0;" vertex="1" parent="1">
          <mxGeometry x="120" y="1120" width="60" height="30" as="geometry" />
        </mxCell>
        <mxCell id="gmV4FLeOSdiEn-evFXXv-30" value="25:21" style="text;html=1;align=center;verticalAlign=middle;whiteSpace=wrap;rounded=0;" vertex="1" parent="1">
          <mxGeometry x="50" y="930" width="60" height="30" as="geometry" />
        </mxCell>
        <mxCell id="gmV4FLeOSdiEn-evFXXv-31" value="20:16" style="text;html=1;align=center;verticalAlign=middle;whiteSpace=wrap;rounded=0;" vertex="1" parent="1">
          <mxGeometry x="50" y="980" width="60" height="30" as="geometry" />
        </mxCell>
        <mxCell id="gmV4FLeOSdiEn-evFXXv-32" value="" style="rounded=0;whiteSpace=wrap;html=1;" vertex="1" parent="1">
          <mxGeometry x="680" y="760" width="40" height="710" as="geometry" />
        </mxCell>
        <mxCell id="gmV4FLeOSdiEn-evFXXv-33" value="" style="endArrow=none;html=1;rounded=0;exitX=-0.008;exitY=0.622;exitDx=0;exitDy=0;fillColor=#dae8fc;strokeColor=#6c8ebf;exitPerimeter=0;" edge="1" parent="1" source="gmV4FLeOSdiEn-evFXXv-32">
          <mxGeometry width="50" height="50" relative="1" as="geometry">
            <mxPoint x="190" y="1200" as="sourcePoint" />
            <mxPoint x="50" y="1198" as="targetPoint" />
          </mxGeometry>
        </mxCell>
        <mxCell id="gmV4FLeOSdiEn-evFXXv-34" value="" style="endArrow=none;html=1;rounded=0;fillColor=#dae8fc;strokeColor=#6c8ebf;exitX=0.058;exitY=0.648;exitDx=0;exitDy=0;exitPerimeter=0;" edge="1" parent="1" source="gmV4FLeOSdiEn-evFXXv-32">
          <mxGeometry width="50" height="50" relative="1" as="geometry">
            <mxPoint x="670" y="1219" as="sourcePoint" />
            <mxPoint x="50" y="1219.2" as="targetPoint" />
          </mxGeometry>
        </mxCell>
        <mxCell id="gmV4FLeOSdiEn-evFXXv-35" value="" style="endArrow=none;html=1;rounded=0;fillColor=#dae8fc;strokeColor=#6c8ebf;exitX=0.027;exitY=0.678;exitDx=0;exitDy=0;exitPerimeter=0;" edge="1" parent="1" source="gmV4FLeOSdiEn-evFXXv-32">
          <mxGeometry width="50" height="50" relative="1" as="geometry">
            <mxPoint x="670" y="1240" as="sourcePoint" />
            <mxPoint x="50" y="1240" as="targetPoint" />
          </mxGeometry>
        </mxCell>
        <mxCell id="gmV4FLeOSdiEn-evFXXv-36" value="25:21" style="text;html=1;align=center;verticalAlign=middle;whiteSpace=wrap;rounded=0;" vertex="1" parent="1">
          <mxGeometry x="50" y="1180" width="60" height="30" as="geometry" />
        </mxCell>
        <mxCell id="gmV4FLeOSdiEn-evFXXv-38" value="20:16" style="text;html=1;align=center;verticalAlign=middle;whiteSpace=wrap;rounded=0;" vertex="1" parent="1">
          <mxGeometry x="50" y="1200" width="60" height="30" as="geometry" />
        </mxCell>
        <mxCell id="gmV4FLeOSdiEn-evFXXv-39" value="15:11" style="text;html=1;align=center;verticalAlign=middle;whiteSpace=wrap;rounded=0;" vertex="1" parent="1">
          <mxGeometry x="50" y="1220" width="60" height="30" as="geometry" />
        </mxCell>
        <mxCell id="gmV4FLeOSdiEn-evFXXv-42" style="edgeStyle=orthogonalEdgeStyle;rounded=0;orthogonalLoop=1;jettySize=auto;html=1;entryX=0;entryY=0.75;entryDx=0;entryDy=0;" edge="1" parent="1">
          <mxGeometry relative="1" as="geometry">
            <mxPoint x="130" y="1306.5000000000002" as="targetPoint" />
            <mxPoint x="50" y="1260" as="sourcePoint" />
            <Array as="points">
              <mxPoint x="50" y="1261" />
              <mxPoint x="90" y="1261" />
              <mxPoint x="90" y="1307" />
            </Array>
          </mxGeometry>
        </mxCell>
        <mxCell id="gmV4FLeOSdiEn-evFXXv-41" value="&lt;div&gt;&lt;span style=&quot;background-color: initial;&quot;&gt;&lt;br&gt;&lt;/span&gt;&lt;/div&gt;&lt;div&gt;&lt;span style=&quot;background-color: initial;&quot;&gt;extend&lt;/span&gt;&lt;br&gt;&lt;/div&gt;&lt;div&gt;unite&lt;/div&gt;" style="shape=manualInput;whiteSpace=wrap;html=1;" vertex="1" parent="1">
          <mxGeometry x="130" y="1260" width="100" height="60" as="geometry" />
        </mxCell>
        <mxCell id="gmV4FLeOSdiEn-evFXXv-43" value="15:0" style="text;html=1;align=center;verticalAlign=middle;whiteSpace=wrap;rounded=0;" vertex="1" parent="1">
          <mxGeometry x="40" y="1240" width="60" height="30" as="geometry" />
        </mxCell>
        <mxCell id="gmV4FLeOSdiEn-evFXXv-46" value="ADDER" style="shape=step;perimeter=stepPerimeter;whiteSpace=wrap;html=1;fixedSize=1;fontSize=10;direction=east;" vertex="1" parent="1">
          <mxGeometry x="410" y="1350" width="85" height="90" as="geometry" />
        </mxCell>
        <mxCell id="gmV4FLeOSdiEn-evFXXv-49" style="edgeStyle=orthogonalEdgeStyle;rounded=0;orthogonalLoop=1;jettySize=auto;html=1;exitX=1;exitY=0.5;exitDx=0;exitDy=0;" edge="1" parent="1" source="gmV4FLeOSdiEn-evFXXv-41" target="gmV4FLeOSdiEn-evFXXv-48">
          <mxGeometry relative="1" as="geometry">
            <mxPoint x="240" y="1290" as="sourcePoint" />
            <Array as="points">
              <mxPoint x="260" y="1290" />
              <mxPoint x="260" y="1360" />
            </Array>
          </mxGeometry>
        </mxCell>
        <mxCell id="gmV4FLeOSdiEn-evFXXv-48" value="&amp;lt;&amp;lt;2" style="shape=parallelogram;perimeter=parallelogramPerimeter;whiteSpace=wrap;html=1;fixedSize=1;" vertex="1" parent="1">
          <mxGeometry x="265" y="1350" width="80" height="30" as="geometry" />
        </mxCell>
        <mxCell id="gmV4FLeOSdiEn-evFXXv-50" style="edgeStyle=orthogonalEdgeStyle;rounded=0;orthogonalLoop=1;jettySize=auto;html=1;exitX=1;exitY=0.5;exitDx=0;exitDy=0;entryX=0.036;entryY=0.194;entryDx=0;entryDy=0;entryPerimeter=0;" edge="1" parent="1" source="gmV4FLeOSdiEn-evFXXv-48" target="gmV4FLeOSdiEn-evFXXv-46">
          <mxGeometry relative="1" as="geometry">
            <Array as="points">
              <mxPoint x="335" y="1367" />
              <mxPoint x="378" y="1367" />
            </Array>
          </mxGeometry>
        </mxCell>
        <mxCell id="gmV4FLeOSdiEn-evFXXv-51" style="edgeStyle=orthogonalEdgeStyle;rounded=0;orthogonalLoop=1;jettySize=auto;html=1;exitX=0.948;exitY=0.898;exitDx=0;exitDy=0;entryX=0;entryY=0.75;entryDx=0;entryDy=0;exitPerimeter=0;" edge="1" parent="1" source="gmV4FLeOSdiEn-evFXXv-1" target="gmV4FLeOSdiEn-evFXXv-46">
          <mxGeometry relative="1" as="geometry">
            <Array as="points">
              <mxPoint x="383" y="1410" />
            </Array>
          </mxGeometry>
        </mxCell>
        <mxCell id="gmV4FLeOSdiEn-evFXXv-55" style="edgeStyle=orthogonalEdgeStyle;rounded=0;orthogonalLoop=1;jettySize=auto;html=1;exitX=1;exitY=0.5;exitDx=0;exitDy=0;fillColor=#dae8fc;strokeColor=#6c8ebf;" edge="1" parent="1" source="gmV4FLeOSdiEn-evFXXv-46">
          <mxGeometry relative="1" as="geometry">
            <mxPoint x="-710" y="1040" as="targetPoint" />
            <mxPoint x="500" y="1390" as="sourcePoint" />
            <Array as="points">
              <mxPoint x="560" y="1395" />
              <mxPoint x="560" y="1530" />
              <mxPoint x="-970" y="1530" />
              <mxPoint x="-970" y="1040" />
            </Array>
          </mxGeometry>
        </mxCell>
        <mxCell id="gmV4FLeOSdiEn-evFXXv-57" style="edgeStyle=orthogonalEdgeStyle;rounded=0;orthogonalLoop=1;jettySize=auto;html=1;" edge="1" parent="1">
          <mxGeometry relative="1" as="geometry">
            <mxPoint x="85.00000000000045" y="1360" as="targetPoint" />
            <mxPoint x="50" y="1280" as="sourcePoint" />
            <Array as="points">
              <mxPoint x="50" y="1360" />
            </Array>
          </mxGeometry>
        </mxCell>
        <mxCell id="gmV4FLeOSdiEn-evFXXv-56" value="&amp;lt;&amp;lt;2" style="shape=parallelogram;perimeter=parallelogramPerimeter;whiteSpace=wrap;html=1;fixedSize=1;" vertex="1" parent="1">
          <mxGeometry x="70" y="1350" width="80" height="30" as="geometry" />
        </mxCell>
        <mxCell id="gmV4FLeOSdiEn-evFXXv-58" value="25:0" style="text;html=1;align=center;verticalAlign=middle;whiteSpace=wrap;rounded=0;" vertex="1" parent="1">
          <mxGeometry x="40" y="1330" width="60" height="30" as="geometry" />
        </mxCell>
        <mxCell id="gmV4FLeOSdiEn-evFXXv-60" style="edgeStyle=orthogonalEdgeStyle;rounded=0;orthogonalLoop=1;jettySize=auto;html=1;exitX=1;exitY=0.5;exitDx=0;exitDy=0;fillColor=#fa6800;strokeColor=#C73500;" edge="1" parent="1" source="gmV4FLeOSdiEn-evFXXv-56">
          <mxGeometry relative="1" as="geometry">
            <mxPoint x="-710" y="1080" as="targetPoint" />
            <mxPoint x="144.92000000000002" y="1364.96" as="sourcePoint" />
            <Array as="points">
              <mxPoint x="210" y="1365" />
              <mxPoint x="210" y="1500" />
              <mxPoint x="-920" y="1500" />
              <mxPoint x="-920" y="1080" />
            </Array>
          </mxGeometry>
        </mxCell>
        <mxCell id="gmV4FLeOSdiEn-evFXXv-62" value="J , JAL" style="text;html=1;align=center;verticalAlign=middle;whiteSpace=wrap;rounded=0;fontSize=24;" vertex="1" parent="1">
          <mxGeometry x="80" y="1470" width="110" height="30" as="geometry" />
        </mxCell>
        <mxCell id="gmV4FLeOSdiEn-evFXXv-63" value="&lt;span style=&quot;font-size: 19px;&quot;&gt;PCBranch&lt;/span&gt;" style="text;html=1;align=center;verticalAlign=middle;whiteSpace=wrap;rounded=0;" vertex="1" parent="1">
          <mxGeometry x="330" y="1500" width="150" height="30" as="geometry" />
        </mxCell>
        <mxCell id="gmV4FLeOSdiEn-evFXXv-64" value="" style="endArrow=none;html=1;rounded=0;entryX=0.017;entryY=0.747;entryDx=0;entryDy=0;entryPerimeter=0;" edge="1" parent="1" target="gmV4FLeOSdiEn-evFXXv-32">
          <mxGeometry width="50" height="50" relative="1" as="geometry">
            <mxPoint x="260" y="1290" as="sourcePoint" />
            <mxPoint x="470" y="1290" as="targetPoint" />
          </mxGeometry>
        </mxCell>
        <mxCell id="gmV4FLeOSdiEn-evFXXv-67" style="edgeStyle=orthogonalEdgeStyle;rounded=0;orthogonalLoop=1;jettySize=auto;html=1;entryX=0.362;entryY=1.076;entryDx=0;entryDy=0;entryPerimeter=0;" edge="1" parent="1" source="gmV4FLeOSdiEn-evFXXv-65" target="gmV4FLeOSdiEn-evFXXv-69">
          <mxGeometry relative="1" as="geometry">
            <mxPoint x="360" y="975" as="targetPoint" />
          </mxGeometry>
        </mxCell>
        <mxCell id="gmV4FLeOSdiEn-evFXXv-65" value="RD1" style="text;html=1;align=center;verticalAlign=middle;whiteSpace=wrap;rounded=0;" vertex="1" parent="1">
          <mxGeometry x="275" y="940" width="60" height="30" as="geometry" />
        </mxCell>
        <mxCell id="gmV4FLeOSdiEn-evFXXv-68" style="edgeStyle=orthogonalEdgeStyle;rounded=0;orthogonalLoop=1;jettySize=auto;html=1;entryX=0.271;entryY=0.997;entryDx=0;entryDy=0;entryPerimeter=0;" edge="1" parent="1" source="gmV4FLeOSdiEn-evFXXv-66" target="gmV4FLeOSdiEn-evFXXv-70">
          <mxGeometry relative="1" as="geometry">
            <mxPoint x="350" y="1034.9999999999998" as="targetPoint" />
            <Array as="points" />
          </mxGeometry>
        </mxCell>
        <mxCell id="gmV4FLeOSdiEn-evFXXv-66" value="RD2" style="text;html=1;align=center;verticalAlign=middle;whiteSpace=wrap;rounded=0;" vertex="1" parent="1">
          <mxGeometry x="265" y="1020" width="60" height="30" as="geometry" />
        </mxCell>
        <mxCell id="gmV4FLeOSdiEn-evFXXv-71" style="edgeStyle=orthogonalEdgeStyle;rounded=0;orthogonalLoop=1;jettySize=auto;html=1;exitX=0.25;exitY=0;exitDx=0;exitDy=0;entryX=0.5;entryY=1;entryDx=0;entryDy=0;" edge="1" parent="1" source="gmV4FLeOSdiEn-evFXXv-69" target="gmV4FLeOSdiEn-evFXXv-74">
          <mxGeometry relative="1" as="geometry">
            <mxPoint x="510" y="949" as="targetPoint" />
          </mxGeometry>
        </mxCell>
        <mxCell id="gmV4FLeOSdiEn-evFXXv-152" style="edgeStyle=orthogonalEdgeStyle;rounded=0;orthogonalLoop=1;jettySize=auto;html=1;exitX=0.75;exitY=1;exitDx=0;exitDy=0;entryX=0.75;entryY=1;entryDx=0;entryDy=0;" edge="1" parent="1" target="gmV4FLeOSdiEn-evFXXv-69">
          <mxGeometry relative="1" as="geometry">
            <mxPoint x="360" y="1600" as="sourcePoint" />
            <Array as="points">
              <mxPoint x="350" y="1601" />
              <mxPoint x="350" y="976" />
            </Array>
          </mxGeometry>
        </mxCell>
        <mxCell id="gmV4FLeOSdiEn-evFXXv-69" value="0&lt;br&gt;1&lt;br&gt;" style="shape=trapezoid;perimeter=trapezoidPerimeter;whiteSpace=wrap;html=1;direction=south;fillColor=#dae8fc;strokeColor=#6c8ebf;" vertex="1" parent="1">
          <mxGeometry x="380" y="935" width="30" height="55" as="geometry" />
        </mxCell>
        <mxCell id="gmV4FLeOSdiEn-evFXXv-153" style="edgeStyle=orthogonalEdgeStyle;rounded=0;orthogonalLoop=1;jettySize=auto;html=1;exitX=0.75;exitY=1;exitDx=0;exitDy=0;entryX=0.75;entryY=1;entryDx=0;entryDy=0;" edge="1" parent="1" target="gmV4FLeOSdiEn-evFXXv-70">
          <mxGeometry relative="1" as="geometry">
            <mxPoint x="350" y="1061.0243902439024" as="sourcePoint" />
          </mxGeometry>
        </mxCell>
        <mxCell id="gmV4FLeOSdiEn-evFXXv-70" value="0&lt;br&gt;1&lt;br&gt;" style="shape=trapezoid;perimeter=trapezoidPerimeter;whiteSpace=wrap;html=1;direction=south;fillColor=#dae8fc;strokeColor=#6c8ebf;" vertex="1" parent="1">
          <mxGeometry x="505" y="1020" width="30" height="55" as="geometry" />
        </mxCell>
        <mxCell id="gmV4FLeOSdiEn-evFXXv-72" style="edgeStyle=orthogonalEdgeStyle;rounded=0;orthogonalLoop=1;jettySize=auto;html=1;exitX=0.75;exitY=0;exitDx=0;exitDy=0;entryX=-0.012;entryY=0.305;entryDx=0;entryDy=0;entryPerimeter=0;" edge="1" parent="1" source="gmV4FLeOSdiEn-evFXXv-69" target="gmV4FLeOSdiEn-evFXXv-32">
          <mxGeometry relative="1" as="geometry" />
        </mxCell>
        <mxCell id="gmV4FLeOSdiEn-evFXXv-73" style="edgeStyle=orthogonalEdgeStyle;rounded=0;orthogonalLoop=1;jettySize=auto;html=1;exitX=0.75;exitY=0;exitDx=0;exitDy=0;" edge="1" parent="1" source="gmV4FLeOSdiEn-evFXXv-70">
          <mxGeometry relative="1" as="geometry">
            <mxPoint x="682" y="1060" as="targetPoint" />
          </mxGeometry>
        </mxCell>
        <mxCell id="gmV4FLeOSdiEn-evFXXv-86" style="edgeStyle=orthogonalEdgeStyle;rounded=0;orthogonalLoop=1;jettySize=auto;html=1;exitX=0;exitY=0.5;exitDx=0;exitDy=0;entryX=0;entryY=0.5;entryDx=0;entryDy=0;" edge="1" parent="1" target="gmV4FLeOSdiEn-evFXXv-74">
          <mxGeometry relative="1" as="geometry">
            <mxPoint x="50" y="842.3913043478265" as="sourcePoint" />
          </mxGeometry>
        </mxCell>
        <mxCell id="gmV4FLeOSdiEn-evFXXv-74" value="BRANCH&lt;div&gt;UNITE&lt;/div&gt;" style="whiteSpace=wrap;html=1;aspect=fixed;fillColor=#1ba1e2;fontColor=#ffffff;strokeColor=#006EAF;" vertex="1" parent="1">
          <mxGeometry x="460" y="770" width="145" height="145" as="geometry" />
        </mxCell>
        <mxCell id="gmV4FLeOSdiEn-evFXXv-75" style="edgeStyle=orthogonalEdgeStyle;rounded=0;orthogonalLoop=1;jettySize=auto;html=1;exitX=0.25;exitY=0;exitDx=0;exitDy=0;entryX=0.699;entryY=0.999;entryDx=0;entryDy=0;entryPerimeter=0;" edge="1" parent="1" source="gmV4FLeOSdiEn-evFXXv-70" target="gmV4FLeOSdiEn-evFXXv-74">
          <mxGeometry relative="1" as="geometry">
            <mxPoint x="430" y="1030.6699999999998" as="sourcePoint" />
            <mxPoint x="561" y="920" as="targetPoint" />
          </mxGeometry>
        </mxCell>
        <mxCell id="gmV4FLeOSdiEn-evFXXv-76" value="RsD" style="text;html=1;align=center;verticalAlign=middle;whiteSpace=wrap;rounded=0;" vertex="1" parent="1">
          <mxGeometry x="585" y="1170" width="60" height="30" as="geometry" />
        </mxCell>
        <mxCell id="gmV4FLeOSdiEn-evFXXv-78" value="RtD" style="text;html=1;align=center;verticalAlign=middle;whiteSpace=wrap;rounded=0;" vertex="1" parent="1">
          <mxGeometry x="580" y="1200" width="60" height="30" as="geometry" />
        </mxCell>
        <mxCell id="gmV4FLeOSdiEn-evFXXv-79" value="RdE" style="text;html=1;align=center;verticalAlign=middle;whiteSpace=wrap;rounded=0;" vertex="1" parent="1">
          <mxGeometry x="580" y="1220" width="60" height="30" as="geometry" />
        </mxCell>
        <mxCell id="gmV4FLeOSdiEn-evFXXv-82" style="edgeStyle=orthogonalEdgeStyle;rounded=0;orthogonalLoop=1;jettySize=auto;html=1;exitX=0;exitY=0.75;exitDx=0;exitDy=0;entryX=0;entryY=0.75;entryDx=0;entryDy=0;" edge="1" parent="1" target="gmV4FLeOSdiEn-evFXXv-81">
          <mxGeometry relative="1" as="geometry">
            <mxPoint x="50" y="860" as="sourcePoint" />
            <Array as="points">
              <mxPoint x="50" y="713" />
            </Array>
          </mxGeometry>
        </mxCell>
        <mxCell id="gmV4FLeOSdiEn-evFXXv-83" style="edgeStyle=orthogonalEdgeStyle;rounded=0;orthogonalLoop=1;jettySize=auto;html=1;entryX=0;entryY=0.5;entryDx=0;entryDy=0;" edge="1" parent="1" target="gmV4FLeOSdiEn-evFXXv-81">
          <mxGeometry relative="1" as="geometry">
            <mxPoint x="50" y="720" as="sourcePoint" />
            <Array as="points">
              <mxPoint x="50" y="635" />
            </Array>
          </mxGeometry>
        </mxCell>
        <mxCell id="gmV4FLeOSdiEn-evFXXv-84" style="edgeStyle=orthogonalEdgeStyle;rounded=0;orthogonalLoop=1;jettySize=auto;html=1;exitX=1;exitY=0.75;exitDx=0;exitDy=0;entryX=0.5;entryY=0;entryDx=0;entryDy=0;" edge="1" parent="1" source="gmV4FLeOSdiEn-evFXXv-81" target="gmV4FLeOSdiEn-evFXXv-74">
          <mxGeometry relative="1" as="geometry" />
        </mxCell>
        <mxCell id="gmV4FLeOSdiEn-evFXXv-118" style="edgeStyle=orthogonalEdgeStyle;rounded=0;orthogonalLoop=1;jettySize=auto;html=1;exitX=1;exitY=0.5;exitDx=0;exitDy=0;fillColor=#dae8fc;strokeColor=#6c8ebf;entryX=-0.075;entryY=0.581;entryDx=0;entryDy=0;entryPerimeter=0;" edge="1" parent="1" source="gmV4FLeOSdiEn-evFXXv-81" target="gmV4FLeOSdiEn-evFXXv-89">
          <mxGeometry relative="1" as="geometry">
            <mxPoint x="1790" y="636" as="targetPoint" />
            <Array as="points">
              <mxPoint x="676" y="635" />
              <mxPoint x="676" y="637" />
            </Array>
          </mxGeometry>
        </mxCell>
        <mxCell id="gmV4FLeOSdiEn-evFXXv-81" value="CONTROL&lt;div&gt;UNITE&lt;/div&gt;" style="rounded=1;whiteSpace=wrap;html=1;fillColor=#dae8fc;strokeColor=#6c8ebf;" vertex="1" parent="1">
          <mxGeometry x="160" y="480" width="100" height="310" as="geometry" />
        </mxCell>
        <mxCell id="gmV4FLeOSdiEn-evFXXv-85" value="BRANCH" style="text;html=1;align=center;verticalAlign=middle;whiteSpace=wrap;rounded=0;" vertex="1" parent="1">
          <mxGeometry x="375" y="690" width="60" height="30" as="geometry" />
        </mxCell>
        <mxCell id="gmV4FLeOSdiEn-evFXXv-87" value="" style="rounded=0;whiteSpace=wrap;html=1;" vertex="1" parent="1">
          <mxGeometry x="680" y="480" width="40" height="270" as="geometry" />
        </mxCell>
        <mxCell id="gmV4FLeOSdiEn-evFXXv-88" value="" style="rounded=0;whiteSpace=wrap;html=1;" vertex="1" parent="1">
          <mxGeometry x="1690" y="760" width="40" height="710" as="geometry" />
        </mxCell>
        <mxCell id="gmV4FLeOSdiEn-evFXXv-89" value="" style="rounded=0;whiteSpace=wrap;html=1;" vertex="1" parent="1">
          <mxGeometry x="1690" y="480" width="40" height="270" as="geometry" />
        </mxCell>
        <mxCell id="gmV4FLeOSdiEn-evFXXv-147" style="edgeStyle=orthogonalEdgeStyle;rounded=0;orthogonalLoop=1;jettySize=auto;html=1;entryX=0.75;entryY=1;entryDx=0;entryDy=0;" edge="1" parent="1" target="gmV4FLeOSdiEn-evFXXv-90">
          <mxGeometry relative="1" as="geometry">
            <mxPoint x="855" y="1600" as="sourcePoint" />
            <Array as="points">
              <mxPoint x="855" y="1541" />
              <mxPoint x="855" y="1012" />
            </Array>
          </mxGeometry>
        </mxCell>
        <mxCell id="gmV4FLeOSdiEn-evFXXv-181" style="edgeStyle=orthogonalEdgeStyle;rounded=0;orthogonalLoop=1;jettySize=auto;html=1;entryX=0.5;entryY=1;entryDx=0;entryDy=0;" edge="1" parent="1" target="gmV4FLeOSdiEn-evFXXv-90">
          <mxGeometry relative="1" as="geometry">
            <mxPoint x="840" y="1740" as="sourcePoint" />
            <Array as="points">
              <mxPoint x="840" y="991" />
            </Array>
          </mxGeometry>
        </mxCell>
        <mxCell id="gmV4FLeOSdiEn-evFXXv-90" value="00&lt;div&gt;01&lt;/div&gt;&lt;div&gt;10&lt;/div&gt;" style="shape=trapezoid;perimeter=trapezoidPerimeter;whiteSpace=wrap;html=1;direction=south;fillColor=#dae8fc;strokeColor=#6c8ebf;" vertex="1" parent="1">
          <mxGeometry x="875" y="950" width="40" height="82.5" as="geometry" />
        </mxCell>
        <mxCell id="gmV4FLeOSdiEn-evFXXv-102" style="edgeStyle=orthogonalEdgeStyle;rounded=0;orthogonalLoop=1;jettySize=auto;html=1;entryX=0.451;entryY=0.935;entryDx=0;entryDy=0;entryPerimeter=0;" edge="1" parent="1" source="gmV4FLeOSdiEn-evFXXv-93" target="gmV4FLeOSdiEn-evFXXv-100">
          <mxGeometry relative="1" as="geometry">
            <mxPoint x="1030" y="1082.5" as="targetPoint" />
          </mxGeometry>
        </mxCell>
        <mxCell id="gmV4FLeOSdiEn-evFXXv-149" style="edgeStyle=orthogonalEdgeStyle;rounded=0;orthogonalLoop=1;jettySize=auto;html=1;" edge="1" parent="1">
          <mxGeometry relative="1" as="geometry">
            <mxPoint x="920" y="1100" as="targetPoint" />
            <mxPoint x="855" y="1100" as="sourcePoint" />
          </mxGeometry>
        </mxCell>
        <mxCell id="gmV4FLeOSdiEn-evFXXv-182" style="edgeStyle=orthogonalEdgeStyle;rounded=0;orthogonalLoop=1;jettySize=auto;html=1;exitX=0.5;exitY=1;exitDx=0;exitDy=0;entryX=0.5;entryY=1;entryDx=0;entryDy=0;" edge="1" parent="1" target="gmV4FLeOSdiEn-evFXXv-93">
          <mxGeometry relative="1" as="geometry">
            <mxPoint x="840" y="1082.6206896551726" as="sourcePoint" />
          </mxGeometry>
        </mxCell>
        <mxCell id="gmV4FLeOSdiEn-evFXXv-93" value="00&lt;div&gt;01&lt;/div&gt;&lt;div&gt;10&lt;/div&gt;" style="shape=trapezoid;perimeter=trapezoidPerimeter;whiteSpace=wrap;html=1;direction=south;fillColor=#dae8fc;strokeColor=#6c8ebf;" vertex="1" parent="1">
          <mxGeometry x="922.5" y="1045" width="35" height="75" as="geometry" />
        </mxCell>
        <mxCell id="gmV4FLeOSdiEn-evFXXv-94" style="edgeStyle=orthogonalEdgeStyle;rounded=0;orthogonalLoop=1;jettySize=auto;html=1;exitX=1.069;exitY=0.298;exitDx=0;exitDy=0;entryX=0.25;entryY=1;entryDx=0;entryDy=0;exitPerimeter=0;" edge="1" parent="1" source="gmV4FLeOSdiEn-evFXXv-32" target="gmV4FLeOSdiEn-evFXXv-90">
          <mxGeometry relative="1" as="geometry" />
        </mxCell>
        <mxCell id="gmV4FLeOSdiEn-evFXXv-96" style="edgeStyle=orthogonalEdgeStyle;rounded=0;orthogonalLoop=1;jettySize=auto;html=1;exitX=1.065;exitY=0.428;exitDx=0;exitDy=0;entryX=0.25;entryY=1;entryDx=0;entryDy=0;exitPerimeter=0;" edge="1" parent="1" source="gmV4FLeOSdiEn-evFXXv-32" target="gmV4FLeOSdiEn-evFXXv-93">
          <mxGeometry relative="1" as="geometry" />
        </mxCell>
        <mxCell id="gmV4FLeOSdiEn-evFXXv-134" style="edgeStyle=orthogonalEdgeStyle;rounded=0;orthogonalLoop=1;jettySize=auto;html=1;exitX=1;exitY=0.5;exitDx=0;exitDy=0;exitPerimeter=0;entryX=0.515;entryY=1.04;entryDx=0;entryDy=0;entryPerimeter=0;" edge="1" parent="1" source="gmV4FLeOSdiEn-evFXXv-98" target="gmV4FLeOSdiEn-evFXXv-132">
          <mxGeometry relative="1" as="geometry">
            <mxPoint x="1560" y="1034.1951219512198" as="targetPoint" />
          </mxGeometry>
        </mxCell>
        <mxCell id="gmV4FLeOSdiEn-evFXXv-98" value="&lt;div style=&quot;text-align: right&quot;&gt;&lt;span&gt;&lt;font style=&quot;font-size: 24px;&quot;&gt;&amp;nbsp; &amp;nbsp; ALU&lt;/font&gt;&lt;/span&gt;&lt;/div&gt;" style="html=1;shadow=0;dashed=0;align=center;verticalAlign=middle;shape=mxgraph.arrows2.arrow;dy=0;dx=49.2;notch=62.4;fillColor=#dae8fc;strokeColor=#6c8ebf;" vertex="1" parent="1">
          <mxGeometry x="1280" y="960" width="170" height="148" as="geometry" />
        </mxCell>
        <mxCell id="gmV4FLeOSdiEn-evFXXv-99" style="edgeStyle=orthogonalEdgeStyle;rounded=0;orthogonalLoop=1;jettySize=auto;html=1;exitX=0.5;exitY=0;exitDx=0;exitDy=0;entryX=0.118;entryY=0.209;entryDx=0;entryDy=0;entryPerimeter=0;" edge="1" parent="1" source="gmV4FLeOSdiEn-evFXXv-90" target="gmV4FLeOSdiEn-evFXXv-98">
          <mxGeometry relative="1" as="geometry" />
        </mxCell>
        <mxCell id="gmV4FLeOSdiEn-evFXXv-101" style="edgeStyle=orthogonalEdgeStyle;rounded=0;orthogonalLoop=1;jettySize=auto;html=1;exitX=1;exitY=0.75;exitDx=0;exitDy=0;entryX=0.75;entryY=1;entryDx=0;entryDy=0;" edge="1" parent="1" source="gmV4FLeOSdiEn-evFXXv-32" target="gmV4FLeOSdiEn-evFXXv-100">
          <mxGeometry relative="1" as="geometry">
            <Array as="points">
              <mxPoint x="990" y="1293" />
              <mxPoint x="990" y="1100" />
            </Array>
          </mxGeometry>
        </mxCell>
        <mxCell id="gmV4FLeOSdiEn-evFXXv-100" value="0&lt;br&gt;1&lt;br&gt;" style="shape=trapezoid;perimeter=trapezoidPerimeter;whiteSpace=wrap;html=1;direction=south;fillColor=#dae8fc;strokeColor=#6c8ebf;" vertex="1" parent="1">
          <mxGeometry x="1035" y="1055" width="30" height="60" as="geometry" />
        </mxCell>
        <mxCell id="gmV4FLeOSdiEn-evFXXv-103" style="edgeStyle=orthogonalEdgeStyle;rounded=0;orthogonalLoop=1;jettySize=auto;html=1;entryX=0.124;entryY=0.84;entryDx=0;entryDy=0;entryPerimeter=0;" edge="1" parent="1" source="gmV4FLeOSdiEn-evFXXv-100" target="gmV4FLeOSdiEn-evFXXv-98">
          <mxGeometry relative="1" as="geometry" />
        </mxCell>
        <mxCell id="gmV4FLeOSdiEn-evFXXv-106" value="&lt;font style=&quot;font-size: 18px;&quot;&gt;Signimme&lt;/font&gt;" style="text;html=1;align=center;verticalAlign=middle;whiteSpace=wrap;rounded=0;" vertex="1" parent="1">
          <mxGeometry x="870" y="1260" width="60" height="30" as="geometry" />
        </mxCell>
        <mxCell id="gmV4FLeOSdiEn-evFXXv-107" value="&lt;span style=&quot;font-size: 16px;&quot;&gt;WriteDataE&lt;/span&gt;" style="text;html=1;align=center;verticalAlign=middle;whiteSpace=wrap;rounded=0;" vertex="1" parent="1">
          <mxGeometry x="1590" y="1160" width="60" height="30" as="geometry" />
        </mxCell>
        <mxCell id="gmV4FLeOSdiEn-evFXXv-108" value="&lt;font style=&quot;font-size: 17px;&quot;&gt;SrcA&lt;/font&gt;" style="text;html=1;align=center;verticalAlign=middle;whiteSpace=wrap;rounded=0;" vertex="1" parent="1">
          <mxGeometry x="1160" y="960" width="60" height="30" as="geometry" />
        </mxCell>
        <mxCell id="gmV4FLeOSdiEn-evFXXv-109" value="&lt;font style=&quot;font-size: 16px;&quot;&gt;SrcB&lt;/font&gt;" style="text;html=1;align=center;verticalAlign=middle;whiteSpace=wrap;rounded=0;" vertex="1" parent="1">
          <mxGeometry x="1160" y="1055" width="60" height="30" as="geometry" />
        </mxCell>
        <mxCell id="gmV4FLeOSdiEn-evFXXv-110" value="0&lt;br&gt;1&lt;br&gt;" style="shape=trapezoid;perimeter=trapezoidPerimeter;whiteSpace=wrap;html=1;direction=south;fillColor=#dae8fc;strokeColor=#6c8ebf;" vertex="1" parent="1">
          <mxGeometry x="795" y="1195" width="30" height="60" as="geometry" />
        </mxCell>
        <mxCell id="gmV4FLeOSdiEn-evFXXv-111" style="edgeStyle=orthogonalEdgeStyle;rounded=0;orthogonalLoop=1;jettySize=auto;html=1;exitX=1.088;exitY=0.641;exitDx=0;exitDy=0;exitPerimeter=0;fillColor=#dae8fc;strokeColor=#6c8ebf;entryX=0.354;entryY=0.978;entryDx=0;entryDy=0;entryPerimeter=0;" edge="1" parent="1" source="gmV4FLeOSdiEn-evFXXv-32" target="gmV4FLeOSdiEn-evFXXv-110">
          <mxGeometry relative="1" as="geometry">
            <mxPoint x="800" y="1220" as="targetPoint" />
            <Array as="points">
              <mxPoint x="790" y="1215" />
              <mxPoint x="796" y="1216" />
            </Array>
          </mxGeometry>
        </mxCell>
        <mxCell id="gmV4FLeOSdiEn-evFXXv-112" style="edgeStyle=orthogonalEdgeStyle;rounded=0;orthogonalLoop=1;jettySize=auto;html=1;exitX=1.075;exitY=0.677;exitDx=0;exitDy=0;entryX=0.75;entryY=1;entryDx=0;entryDy=0;exitPerimeter=0;fillColor=#dae8fc;strokeColor=#6c8ebf;" edge="1" parent="1" source="gmV4FLeOSdiEn-evFXXv-32" target="gmV4FLeOSdiEn-evFXXv-110">
          <mxGeometry relative="1" as="geometry">
            <Array as="points">
              <mxPoint x="755" y="1241" />
            </Array>
          </mxGeometry>
        </mxCell>
        <mxCell id="gmV4FLeOSdiEn-evFXXv-113" value="RsE" style="text;html=1;align=center;verticalAlign=middle;whiteSpace=wrap;rounded=0;" vertex="1" parent="1">
          <mxGeometry x="720" y="1165" width="60" height="30" as="geometry" />
        </mxCell>
        <mxCell id="gmV4FLeOSdiEn-evFXXv-114" value="RtE" style="text;html=1;align=center;verticalAlign=middle;whiteSpace=wrap;rounded=0;" vertex="1" parent="1">
          <mxGeometry x="710" y="1195" width="60" height="30" as="geometry" />
        </mxCell>
        <mxCell id="gmV4FLeOSdiEn-evFXXv-115" value="RdE" style="text;html=1;align=center;verticalAlign=middle;whiteSpace=wrap;rounded=0;" vertex="1" parent="1">
          <mxGeometry x="715" y="1220" width="60" height="30" as="geometry" />
        </mxCell>
        <mxCell id="gmV4FLeOSdiEn-evFXXv-116" style="edgeStyle=orthogonalEdgeStyle;rounded=0;orthogonalLoop=1;jettySize=auto;html=1;exitX=0.5;exitY=0;exitDx=0;exitDy=0;" edge="1" parent="1">
          <mxGeometry relative="1" as="geometry">
            <mxPoint x="825" y="1232.82" as="sourcePoint" />
            <mxPoint x="1780" y="1790.9412339154412" as="targetPoint" />
            <Array as="points">
              <mxPoint x="1680" y="1232.82" />
              <mxPoint x="1680" y="1236.82" />
            </Array>
          </mxGeometry>
        </mxCell>
        <mxCell id="gmV4FLeOSdiEn-evFXXv-117" value="WrireRegE 4:0" style="text;html=1;align=center;verticalAlign=middle;whiteSpace=wrap;rounded=0;" vertex="1" parent="1">
          <mxGeometry x="1480" y="1195" width="90" height="30" as="geometry" />
        </mxCell>
        <mxCell id="gmV4FLeOSdiEn-evFXXv-119" value="2 bits to load/sstore typr" style="text;html=1;align=center;verticalAlign=middle;whiteSpace=wrap;rounded=0;" vertex="1" parent="1">
          <mxGeometry x="265" y="610" width="155" height="30" as="geometry" />
        </mxCell>
        <mxCell id="gmV4FLeOSdiEn-evFXXv-121" style="edgeStyle=orthogonalEdgeStyle;rounded=0;orthogonalLoop=1;jettySize=auto;html=1;exitX=0;exitY=0;exitDx=0;exitDy=0;" edge="1" parent="1" target="gmV4FLeOSdiEn-evFXXv-120">
          <mxGeometry relative="1" as="geometry">
            <mxPoint x="1313.370598448204" y="761.9941082257392" as="targetPoint" />
            <mxPoint x="1120.0000000000005" y="989.97" as="sourcePoint" />
            <Array as="points">
              <mxPoint x="1120" y="762" />
            </Array>
          </mxGeometry>
        </mxCell>
        <mxCell id="gmV4FLeOSdiEn-evFXXv-122" style="edgeStyle=orthogonalEdgeStyle;rounded=0;orthogonalLoop=1;jettySize=auto;html=1;entryX=0;entryY=1;entryDx=0;entryDy=0;" edge="1" parent="1" target="gmV4FLeOSdiEn-evFXXv-120">
          <mxGeometry relative="1" as="geometry">
            <mxPoint x="1160" y="1090" as="sourcePoint" />
            <Array as="points">
              <mxPoint x="1160" y="1090" />
              <mxPoint x="1160" y="868" />
            </Array>
          </mxGeometry>
        </mxCell>
        <mxCell id="gmV4FLeOSdiEn-evFXXv-120" value="&lt;font style=&quot;font-size: 25px;&quot;&gt;MULT&lt;/font&gt;" style="shape=sumEllipse;perimeter=ellipsePerimeter;whiteSpace=wrap;html=1;backgroundOutline=1;fillColor=#dae8fc;strokeColor=#6c8ebf;" vertex="1" parent="1">
          <mxGeometry x="1360" y="740" width="160" height="150" as="geometry" />
        </mxCell>
        <mxCell id="gmV4FLeOSdiEn-evFXXv-127" value="Text" style="text;html=1;align=center;verticalAlign=middle;whiteSpace=wrap;rounded=0;" vertex="1" parent="1">
          <mxGeometry x="1430" y="890" width="60" height="30" as="geometry" />
        </mxCell>
        <mxCell id="gmV4FLeOSdiEn-evFXXv-128" value="EN" style="text;html=1;align=center;verticalAlign=middle;whiteSpace=wrap;rounded=0;" vertex="1" parent="1">
          <mxGeometry x="1380" y="710" width="60" height="30" as="geometry" />
        </mxCell>
        <mxCell id="gmV4FLeOSdiEn-evFXXv-130" value="" style="endArrow=none;html=1;rounded=0;fillColor=#d5e8d4;strokeColor=#82b366;" edge="1" parent="1">
          <mxGeometry width="50" height="50" relative="1" as="geometry">
            <mxPoint x="990" y="1290" as="sourcePoint" />
            <mxPoint x="1560" y="1290" as="targetPoint" />
          </mxGeometry>
        </mxCell>
        <mxCell id="gmV4FLeOSdiEn-evFXXv-131" value="" style="endArrow=none;html=1;rounded=0;fillColor=#d5e8d4;strokeColor=#82b366;" edge="1" parent="1">
          <mxGeometry width="50" height="50" relative="1" as="geometry">
            <mxPoint x="1560" y="1290" as="sourcePoint" />
            <mxPoint x="1560" y="1080" as="targetPoint" />
          </mxGeometry>
        </mxCell>
        <mxCell id="gmV4FLeOSdiEn-evFXXv-133" style="edgeStyle=orthogonalEdgeStyle;rounded=0;orthogonalLoop=1;jettySize=auto;html=1;entryX=0.678;entryY=1.005;entryDx=0;entryDy=0;entryPerimeter=0;fillColor=#d5e8d4;strokeColor=#82b366;" edge="1" parent="1">
          <mxGeometry relative="1" as="geometry">
            <mxPoint x="1580.0000000000002" y="1053.055" as="targetPoint" />
            <mxPoint x="1560.2" y="1080" as="sourcePoint" />
            <Array as="points">
              <mxPoint x="1560" y="1053" />
            </Array>
          </mxGeometry>
        </mxCell>
        <mxCell id="gmV4FLeOSdiEn-evFXXv-132" value="00&lt;div&gt;01&lt;/div&gt;&lt;div&gt;10&lt;/div&gt;" style="shape=trapezoid;perimeter=trapezoidPerimeter;whiteSpace=wrap;html=1;direction=south;fillColor=#dae8fc;strokeColor=#6c8ebf;" vertex="1" parent="1">
          <mxGeometry x="1580" y="970" width="40" height="122.5" as="geometry" />
        </mxCell>
        <mxCell id="gmV4FLeOSdiEn-evFXXv-135" style="edgeStyle=orthogonalEdgeStyle;rounded=0;orthogonalLoop=1;jettySize=auto;html=1;exitX=1;exitY=0.5;exitDx=0;exitDy=0;entryX=0.386;entryY=1.016;entryDx=0;entryDy=0;entryPerimeter=0;" edge="1" parent="1" source="gmV4FLeOSdiEn-evFXXv-120" target="gmV4FLeOSdiEn-evFXXv-132">
          <mxGeometry relative="1" as="geometry">
            <Array as="points">
              <mxPoint x="1550" y="815" />
              <mxPoint x="1550" y="1017" />
            </Array>
          </mxGeometry>
        </mxCell>
        <mxCell id="gmV4FLeOSdiEn-evFXXv-136" style="edgeStyle=orthogonalEdgeStyle;rounded=0;orthogonalLoop=1;jettySize=auto;html=1;exitX=0.5;exitY=0;exitDx=0;exitDy=0;" edge="1" parent="1" source="gmV4FLeOSdiEn-evFXXv-132">
          <mxGeometry relative="1" as="geometry">
            <mxPoint x="1690" y="1031" as="targetPoint" />
          </mxGeometry>
        </mxCell>
        <mxCell id="gmV4FLeOSdiEn-evFXXv-159" style="edgeStyle=orthogonalEdgeStyle;rounded=0;orthogonalLoop=1;jettySize=auto;html=1;exitX=0.25;exitY=0;exitDx=0;exitDy=0;entryX=0.062;entryY=0.262;entryDx=0;entryDy=0;entryPerimeter=0;" edge="1" parent="1" source="gmV4FLeOSdiEn-evFXXv-137" target="gmV4FLeOSdiEn-evFXXv-155">
          <mxGeometry relative="1" as="geometry">
            <mxPoint x="2630" y="955.9090909090905" as="targetPoint" />
          </mxGeometry>
        </mxCell>
        <mxCell id="gmV4FLeOSdiEn-evFXXv-137" value="DATA MEMORY" style="rounded=0;whiteSpace=wrap;html=1;direction=south;fillColor=#dae8fc;strokeColor=#6c8ebf;" vertex="1" parent="1">
          <mxGeometry x="1960" y="864.37" width="280" height="365.63" as="geometry" />
        </mxCell>
        <mxCell id="gmV4FLeOSdiEn-evFXXv-139" style="edgeStyle=orthogonalEdgeStyle;rounded=0;orthogonalLoop=1;jettySize=auto;html=1;exitX=1.111;exitY=0.383;exitDx=0;exitDy=0;entryX=0;entryY=0.5;entryDx=0;entryDy=0;exitPerimeter=0;" edge="1" parent="1" source="gmV4FLeOSdiEn-evFXXv-88" target="gmV4FLeOSdiEn-evFXXv-140">
          <mxGeometry relative="1" as="geometry" />
        </mxCell>
        <mxCell id="gmV4FLeOSdiEn-evFXXv-140" value="A" style="text;html=1;align=center;verticalAlign=middle;whiteSpace=wrap;rounded=0;" vertex="1" parent="1">
          <mxGeometry x="1970" y="1016" width="60" height="30" as="geometry" />
        </mxCell>
        <mxCell id="gmV4FLeOSdiEn-evFXXv-142" value="" style="endArrow=none;html=1;rounded=0;" edge="1" parent="1">
          <mxGeometry width="50" height="50" relative="1" as="geometry">
            <mxPoint x="970" y="1080" as="sourcePoint" />
            <mxPoint x="970" y="1190" as="targetPoint" />
          </mxGeometry>
        </mxCell>
        <mxCell id="gmV4FLeOSdiEn-evFXXv-143" value="" style="endArrow=classic;html=1;rounded=0;entryX=0.882;entryY=1.018;entryDx=0;entryDy=0;entryPerimeter=0;" edge="1" parent="1" target="gmV4FLeOSdiEn-evFXXv-137">
          <mxGeometry width="50" height="50" relative="1" as="geometry">
            <mxPoint x="970" y="1190" as="sourcePoint" />
            <mxPoint x="1070" y="1170" as="targetPoint" />
          </mxGeometry>
        </mxCell>
        <mxCell id="gmV4FLeOSdiEn-evFXXv-144" style="edgeStyle=orthogonalEdgeStyle;rounded=0;orthogonalLoop=1;jettySize=auto;html=1;exitX=1.058;exitY=0.591;exitDx=0;exitDy=0;entryX=0;entryY=0.75;entryDx=0;entryDy=0;exitPerimeter=0;fillColor=#dae8fc;strokeColor=#6c8ebf;" edge="1" parent="1" source="gmV4FLeOSdiEn-evFXXv-89" target="gmV4FLeOSdiEn-evFXXv-137">
          <mxGeometry relative="1" as="geometry" />
        </mxCell>
        <mxCell id="gmV4FLeOSdiEn-evFXXv-145" value="S type" style="text;html=1;align=center;verticalAlign=middle;whiteSpace=wrap;rounded=0;" vertex="1" parent="1">
          <mxGeometry x="2000" y="870" width="60" height="30" as="geometry" />
        </mxCell>
        <mxCell id="gmV4FLeOSdiEn-evFXXv-146" value="WD" style="text;html=1;align=center;verticalAlign=middle;whiteSpace=wrap;rounded=0;" vertex="1" parent="1">
          <mxGeometry x="1960" y="1170" width="60" height="30" as="geometry" />
        </mxCell>
        <mxCell id="gmV4FLeOSdiEn-evFXXv-150" value="" style="endArrow=classic;html=1;rounded=0;" edge="1" parent="1">
          <mxGeometry width="50" height="50" relative="1" as="geometry">
            <mxPoint x="1840" y="1030" as="sourcePoint" />
            <mxPoint x="1840" y="1600" as="targetPoint" />
          </mxGeometry>
        </mxCell>
        <mxCell id="gmV4FLeOSdiEn-evFXXv-151" value="" style="endArrow=none;html=1;rounded=0;" edge="1" parent="1">
          <mxGeometry width="50" height="50" relative="1" as="geometry">
            <mxPoint x="360" y="1600" as="sourcePoint" />
            <mxPoint x="1840" y="1600" as="targetPoint" />
          </mxGeometry>
        </mxCell>
        <mxCell id="gmV4FLeOSdiEn-evFXXv-154" value="" style="rounded=1;whiteSpace=wrap;html=1;fillColor=#b1ddf0;strokeColor=#10739e;strokeWidth=16;" vertex="1" parent="1">
          <mxGeometry x="-950" y="1800" width="4090" height="130" as="geometry" />
        </mxCell>
        <mxCell id="gmV4FLeOSdiEn-evFXXv-155" value="" style="rounded=0;whiteSpace=wrap;html=1;" vertex="1" parent="1">
          <mxGeometry x="2640" y="770" width="40" height="710" as="geometry" />
        </mxCell>
        <mxCell id="gmV4FLeOSdiEn-evFXXv-156" value="" style="rounded=0;whiteSpace=wrap;html=1;" vertex="1" parent="1">
          <mxGeometry x="2640" y="490" width="40" height="270" as="geometry" />
        </mxCell>
        <mxCell id="gmV4FLeOSdiEn-evFXXv-157" value="" style="endArrow=classic;html=1;rounded=0;entryX=-0.078;entryY=0.779;entryDx=0;entryDy=0;entryPerimeter=0;" edge="1" parent="1" target="gmV4FLeOSdiEn-evFXXv-155">
          <mxGeometry width="50" height="50" relative="1" as="geometry">
            <mxPoint x="1780" y="1320" as="sourcePoint" />
            <mxPoint x="2000" y="1290" as="targetPoint" />
          </mxGeometry>
        </mxCell>
        <mxCell id="gmV4FLeOSdiEn-evFXXv-158" value="WrireRegM 4:0" style="text;html=1;align=center;verticalAlign=middle;whiteSpace=wrap;rounded=0;" vertex="1" parent="1">
          <mxGeometry x="2070" y="1290" width="90" height="30" as="geometry" />
        </mxCell>
        <mxCell id="gmV4FLeOSdiEn-evFXXv-160" value="RD" style="text;html=1;align=center;verticalAlign=middle;whiteSpace=wrap;rounded=0;" vertex="1" parent="1">
          <mxGeometry x="2180" y="940" width="60" height="34" as="geometry" />
        </mxCell>
        <mxCell id="gmV4FLeOSdiEn-evFXXv-161" value="" style="endArrow=classic;html=1;rounded=0;entryX=-0.078;entryY=0.72;entryDx=0;entryDy=0;entryPerimeter=0;" edge="1" parent="1" target="gmV4FLeOSdiEn-evFXXv-155">
          <mxGeometry width="50" height="50" relative="1" as="geometry">
            <mxPoint x="1840" y="1280" as="sourcePoint" />
            <mxPoint x="2340" y="1240" as="targetPoint" />
          </mxGeometry>
        </mxCell>
        <mxCell id="gmV4FLeOSdiEn-evFXXv-162" value="ALUoutM" style="text;html=1;align=center;verticalAlign=middle;whiteSpace=wrap;rounded=0;" vertex="1" parent="1">
          <mxGeometry x="1760" y="1003" width="60" height="30" as="geometry" />
        </mxCell>
        <mxCell id="gmV4FLeOSdiEn-evFXXv-163" value="" style="endArrow=none;html=1;rounded=0;exitX=1;exitY=0.775;exitDx=0;exitDy=0;exitPerimeter=0;" edge="1" parent="1" source="gmV4FLeOSdiEn-evFXXv-155">
          <mxGeometry width="50" height="50" relative="1" as="geometry">
            <mxPoint x="2720" y="1350" as="sourcePoint" />
            <mxPoint x="2840" y="1320" as="targetPoint" />
          </mxGeometry>
        </mxCell>
        <mxCell id="gmV4FLeOSdiEn-evFXXv-164" value="" style="endArrow=classic;html=1;rounded=0;" edge="1" parent="1">
          <mxGeometry width="50" height="50" relative="1" as="geometry">
            <mxPoint x="2840" y="1320" as="sourcePoint" />
            <mxPoint x="2840" y="1790" as="targetPoint" />
          </mxGeometry>
        </mxCell>
        <mxCell id="gmV4FLeOSdiEn-evFXXv-165" value="WrireRegW 4:0" style="text;html=1;align=center;verticalAlign=middle;whiteSpace=wrap;rounded=0;" vertex="1" parent="1">
          <mxGeometry x="2690" y="1320" width="90" height="30" as="geometry" />
        </mxCell>
        <mxCell id="gmV4FLeOSdiEn-evFXXv-172" style="edgeStyle=orthogonalEdgeStyle;rounded=0;orthogonalLoop=1;jettySize=auto;html=1;exitX=0.5;exitY=0;exitDx=0;exitDy=0;" edge="1" parent="1" source="gmV4FLeOSdiEn-evFXXv-166">
          <mxGeometry relative="1" as="geometry">
            <mxPoint x="3080" y="1730" as="targetPoint" />
          </mxGeometry>
        </mxCell>
        <mxCell id="gmV4FLeOSdiEn-evFXXv-166" value="0&lt;div&gt;&lt;br&gt;&lt;/div&gt;&lt;div&gt;&lt;br&gt;&lt;/div&gt;&lt;div&gt;&lt;br&gt;&lt;/div&gt;&lt;div&gt;&lt;br&gt;1&lt;br&gt;&lt;/div&gt;" style="shape=trapezoid;perimeter=trapezoidPerimeter;whiteSpace=wrap;html=1;direction=south;fillColor=#dae8fc;strokeColor=#6c8ebf;" vertex="1" parent="1">
          <mxGeometry x="2880" y="920" width="70" height="150" as="geometry" />
        </mxCell>
        <mxCell id="gmV4FLeOSdiEn-evFXXv-168" value="" style="endArrow=classic;html=1;rounded=0;exitX=1.168;exitY=0.265;exitDx=0;exitDy=0;exitPerimeter=0;entryX=0.25;entryY=1;entryDx=0;entryDy=0;" edge="1" parent="1" source="gmV4FLeOSdiEn-evFXXv-155" target="gmV4FLeOSdiEn-evFXXv-166">
          <mxGeometry width="50" height="50" relative="1" as="geometry">
            <mxPoint x="2710" y="980" as="sourcePoint" />
            <mxPoint x="2760" y="930" as="targetPoint" />
          </mxGeometry>
        </mxCell>
        <mxCell id="gmV4FLeOSdiEn-evFXXv-169" value="" style="endArrow=none;html=1;rounded=0;exitX=1.027;exitY=0.719;exitDx=0;exitDy=0;exitPerimeter=0;" edge="1" parent="1" source="gmV4FLeOSdiEn-evFXXv-155">
          <mxGeometry width="50" height="50" relative="1" as="geometry">
            <mxPoint x="2680" y="1283.67" as="sourcePoint" />
            <mxPoint x="2800" y="1280" as="targetPoint" />
          </mxGeometry>
        </mxCell>
        <mxCell id="gmV4FLeOSdiEn-evFXXv-170" value="" style="endArrow=none;html=1;rounded=0;" edge="1" parent="1">
          <mxGeometry width="50" height="50" relative="1" as="geometry">
            <mxPoint x="2800" y="1280" as="sourcePoint" />
            <mxPoint x="2800" y="1040" as="targetPoint" />
          </mxGeometry>
        </mxCell>
        <mxCell id="gmV4FLeOSdiEn-evFXXv-171" value="" style="endArrow=classic;html=1;rounded=0;entryX=0.8;entryY=1.046;entryDx=0;entryDy=0;entryPerimeter=0;" edge="1" parent="1" target="gmV4FLeOSdiEn-evFXXv-166">
          <mxGeometry width="50" height="50" relative="1" as="geometry">
            <mxPoint x="2800" y="1040" as="sourcePoint" />
            <mxPoint x="2850" y="990" as="targetPoint" />
          </mxGeometry>
        </mxCell>
        <mxCell id="gmV4FLeOSdiEn-evFXXv-173" value="ALUoutM" style="text;html=1;align=center;verticalAlign=middle;whiteSpace=wrap;rounded=0;" vertex="1" parent="1">
          <mxGeometry x="2700" y="1250" width="60" height="30" as="geometry" />
        </mxCell>
        <mxCell id="gmV4FLeOSdiEn-evFXXv-174" value="Read Data W" style="text;html=1;align=center;verticalAlign=middle;whiteSpace=wrap;rounded=0;" vertex="1" parent="1">
          <mxGeometry x="2700" y="930" width="115" height="30" as="geometry" />
        </mxCell>
        <mxCell id="gmV4FLeOSdiEn-evFXXv-175" value="" style="endArrow=none;html=1;rounded=0;" edge="1" parent="1">
          <mxGeometry width="50" height="50" relative="1" as="geometry">
            <mxPoint x="80" y="1680" as="sourcePoint" />
            <mxPoint x="2840" y="1680" as="targetPoint" />
          </mxGeometry>
        </mxCell>
        <mxCell id="gmV4FLeOSdiEn-evFXXv-176" value="" style="endArrow=none;html=1;rounded=0;" edge="1" parent="1">
          <mxGeometry width="50" height="50" relative="1" as="geometry">
            <mxPoint x="80" y="1680" as="sourcePoint" />
            <mxPoint x="80" y="1080" as="targetPoint" />
          </mxGeometry>
        </mxCell>
        <mxCell id="gmV4FLeOSdiEn-evFXXv-178" value="" style="endArrow=classic;html=1;rounded=0;entryX=-0.06;entryY=0.87;entryDx=0;entryDy=0;entryPerimeter=0;" edge="1" parent="1" target="gmV4FLeOSdiEn-evFXXv-24">
          <mxGeometry width="50" height="50" relative="1" as="geometry">
            <mxPoint x="80" y="1080" as="sourcePoint" />
            <mxPoint x="110" y="1050" as="targetPoint" />
          </mxGeometry>
        </mxCell>
        <mxCell id="gmV4FLeOSdiEn-evFXXv-180" value="" style="endArrow=none;html=1;rounded=0;" edge="1" parent="1">
          <mxGeometry width="50" height="50" relative="1" as="geometry">
            <mxPoint x="30" y="1740" as="sourcePoint" />
            <mxPoint x="3080" y="1730" as="targetPoint" />
          </mxGeometry>
        </mxCell>
        <mxCell id="gmV4FLeOSdiEn-evFXXv-183" value="" style="endArrow=none;html=1;rounded=0;" edge="1" parent="1">
          <mxGeometry width="50" height="50" relative="1" as="geometry">
            <mxPoint x="30" y="1740" as="sourcePoint" />
            <mxPoint x="30" y="1130" as="targetPoint" />
          </mxGeometry>
        </mxCell>
        <mxCell id="gmV4FLeOSdiEn-evFXXv-185" value="" style="endArrow=classic;html=1;rounded=0;entryX=0;entryY=0.333;entryDx=0;entryDy=0;entryPerimeter=0;" edge="1" parent="1" target="gmV4FLeOSdiEn-evFXXv-25">
          <mxGeometry width="50" height="50" relative="1" as="geometry">
            <mxPoint x="30" y="1130" as="sourcePoint" />
            <mxPoint x="90" y="1120" as="targetPoint" />
          </mxGeometry>
        </mxCell>
        <mxCell id="gmV4FLeOSdiEn-evFXXv-186" value="" style="endArrow=classic;html=1;rounded=0;" edge="1" parent="1">
          <mxGeometry width="50" height="50" relative="1" as="geometry">
            <mxPoint x="1600" y="1230" as="sourcePoint" />
            <mxPoint x="1600" y="1790" as="targetPoint" />
          </mxGeometry>
        </mxCell>
        <mxCell id="gmV4FLeOSdiEn-evFXXv-187" value="" style="endArrow=classic;html=1;rounded=0;" edge="1" parent="1">
          <mxGeometry width="50" height="50" relative="1" as="geometry">
            <mxPoint x="770" y="1215" as="sourcePoint" />
            <mxPoint x="770" y="1790" as="targetPoint" />
          </mxGeometry>
        </mxCell>
        <mxCell id="gmV4FLeOSdiEn-evFXXv-188" value="" style="endArrow=none;html=1;rounded=0;exitX=1.076;exitY=0.62;exitDx=0;exitDy=0;exitPerimeter=0;" edge="1" parent="1" source="gmV4FLeOSdiEn-evFXXv-32">
          <mxGeometry width="50" height="50" relative="1" as="geometry">
            <mxPoint x="750" y="1210" as="sourcePoint" />
            <mxPoint x="760" y="1200" as="targetPoint" />
          </mxGeometry>
        </mxCell>
        <mxCell id="gmV4FLeOSdiEn-evFXXv-189" value="" style="endArrow=classic;html=1;rounded=0;" edge="1" parent="1">
          <mxGeometry width="50" height="50" relative="1" as="geometry">
            <mxPoint x="760" y="1200" as="sourcePoint" />
            <mxPoint x="760" y="1790" as="targetPoint" />
          </mxGeometry>
        </mxCell>
        <mxCell id="gmV4FLeOSdiEn-evFXXv-190" value="" style="endArrow=classic;html=1;rounded=0;" edge="1" parent="1">
          <mxGeometry width="50" height="50" relative="1" as="geometry">
            <mxPoint x="655" y="1220" as="sourcePoint" />
            <mxPoint x="655" y="1795" as="targetPoint" />
          </mxGeometry>
        </mxCell>
        <mxCell id="gmV4FLeOSdiEn-evFXXv-191" value="" style="endArrow=classic;html=1;rounded=0;" edge="1" parent="1">
          <mxGeometry width="50" height="50" relative="1" as="geometry">
            <mxPoint x="635" y="1200" as="sourcePoint" />
            <mxPoint x="635" y="1790" as="targetPoint" />
          </mxGeometry>
        </mxCell>
        <mxCell id="gmV4FLeOSdiEn-evFXXv-192" value="" style="endArrow=classic;html=1;rounded=0;fillColor=#b1ddf0;strokeColor=#10739e;" edge="1" parent="1">
          <mxGeometry width="50" height="50" relative="1" as="geometry">
            <mxPoint x="535" y="1790" as="sourcePoint" />
            <mxPoint x="525" y="1075" as="targetPoint" />
          </mxGeometry>
        </mxCell>
        <mxCell id="gmV4FLeOSdiEn-evFXXv-193" value="" style="endArrow=classic;html=1;rounded=0;fillColor=#b1ddf0;strokeColor=#10739e;" edge="1" parent="1">
          <mxGeometry width="50" height="50" relative="1" as="geometry">
            <mxPoint x="400" y="1790" as="sourcePoint" />
            <mxPoint x="390" y="990" as="targetPoint" />
          </mxGeometry>
        </mxCell>
        <mxCell id="gmV4FLeOSdiEn-evFXXv-194" value="" style="endArrow=classic;html=1;rounded=0;fillColor=#b1ddf0;strokeColor=#10739e;" edge="1" parent="1">
          <mxGeometry width="50" height="50" relative="1" as="geometry">
            <mxPoint x="945" y="1800" as="sourcePoint" />
            <mxPoint x="935" y="1115" as="targetPoint" />
          </mxGeometry>
        </mxCell>
        <mxCell id="gmV4FLeOSdiEn-evFXXv-195" value="" style="endArrow=classic;html=1;rounded=0;fillColor=#b1ddf0;strokeColor=#10739e;" edge="1" parent="1">
          <mxGeometry width="50" height="50" relative="1" as="geometry">
            <mxPoint x="900" y="1790" as="sourcePoint" />
            <mxPoint x="890" y="1032.5" as="targetPoint" />
          </mxGeometry>
        </mxCell>
        <mxCell id="gmV4FLeOSdiEn-evFXXv-196" value="" style="endArrow=classic;html=1;rounded=0;fillColor=#b1ddf0;strokeColor=#10739e;" edge="1" parent="1">
          <mxGeometry width="50" height="50" relative="1" as="geometry">
            <mxPoint x="-430" y="1790" as="sourcePoint" />
            <mxPoint x="-430" y="1350" as="targetPoint" />
            <Array as="points">
              <mxPoint x="-430" y="1440" />
            </Array>
          </mxGeometry>
        </mxCell>
        <mxCell id="gmV4FLeOSdiEn-evFXXv-198" value="" style="endArrow=classic;html=1;rounded=0;fillColor=#b1ddf0;strokeColor=#10739e;" edge="1" parent="1">
          <mxGeometry width="50" height="50" relative="1" as="geometry">
            <mxPoint x="-30" y="1790" as="sourcePoint" />
            <mxPoint x="-30" y="1480" as="targetPoint" />
            <Array as="points">
              <mxPoint x="-30" y="1480" />
            </Array>
          </mxGeometry>
        </mxCell>
        <mxCell id="gmV4FLeOSdiEn-evFXXv-200" value="" style="endArrow=none;html=1;rounded=0;fillColor=#b1ddf0;strokeColor=#10739e;" edge="1" parent="1">
          <mxGeometry width="50" height="50" relative="1" as="geometry">
            <mxPoint x="580" y="770" as="sourcePoint" />
            <mxPoint x="580" y="440" as="targetPoint" />
          </mxGeometry>
        </mxCell>
        <mxCell id="gmV4FLeOSdiEn-evFXXv-201" value="" style="endArrow=none;html=1;rounded=0;fillColor=#b1ddf0;strokeColor=#10739e;" edge="1" parent="1">
          <mxGeometry width="50" height="50" relative="1" as="geometry">
            <mxPoint x="10" y="440" as="sourcePoint" />
            <mxPoint x="580" y="440" as="targetPoint" />
          </mxGeometry>
        </mxCell>
        <mxCell id="gmV4FLeOSdiEn-evFXXv-202" value="" style="endArrow=none;html=1;rounded=0;fillColor=#b1ddf0;strokeColor=#10739e;" edge="1" parent="1">
          <mxGeometry width="50" height="50" relative="1" as="geometry">
            <mxPoint x="10" y="1560" as="sourcePoint" />
            <mxPoint x="10" y="440" as="targetPoint" />
          </mxGeometry>
        </mxCell>
        <mxCell id="gmV4FLeOSdiEn-evFXXv-203" value="" style="endArrow=none;html=1;rounded=0;fillColor=#b1ddf0;strokeColor=#10739e;" edge="1" parent="1">
          <mxGeometry width="50" height="50" relative="1" as="geometry">
            <mxPoint x="-10" y="1560" as="sourcePoint" />
            <mxPoint x="10" y="1560" as="targetPoint" />
          </mxGeometry>
        </mxCell>
        <mxCell id="gmV4FLeOSdiEn-evFXXv-204" value="" style="endArrow=classic;html=1;rounded=0;entryX=0.75;entryY=1.004;entryDx=0;entryDy=0;entryPerimeter=0;fillColor=#b1ddf0;strokeColor=#10739e;" edge="1" parent="1" target="gmV4FLeOSdiEn-evFXXv-1">
          <mxGeometry width="50" height="50" relative="1" as="geometry">
            <mxPoint x="-10" y="1560" as="sourcePoint" />
            <mxPoint x="-10" y="1490" as="targetPoint" />
          </mxGeometry>
        </mxCell>
        <mxCell id="gmV4FLeOSdiEn-evFXXv-205" value="" style="endArrow=classic;html=1;rounded=0;fillColor=#b1ddf0;strokeColor=#10739e;" edge="1" parent="1">
          <mxGeometry width="50" height="50" relative="1" as="geometry">
            <mxPoint x="699.17" y="1790" as="sourcePoint" />
            <mxPoint x="699.17" y="1480" as="targetPoint" />
            <Array as="points" />
          </mxGeometry>
        </mxCell>
        <mxCell id="gmV4FLeOSdiEn-evFXXv-206" value="" style="endArrow=classic;html=1;rounded=0;fillColor=#b1ddf0;strokeColor=#10739e;" edge="1" parent="1">
          <mxGeometry width="50" height="50" relative="1" as="geometry">
            <mxPoint x="260" y="600" as="sourcePoint" />
            <mxPoint x="2772.0001220703125" y="600" as="targetPoint" />
          </mxGeometry>
        </mxCell>
        <mxCell id="gmV4FLeOSdiEn-evFXXv-207" value="RegWrite D" style="text;html=1;align=center;verticalAlign=middle;whiteSpace=wrap;rounded=0;" vertex="1" parent="1">
          <mxGeometry x="260" y="580" width="115" height="30" as="geometry" />
        </mxCell>
        <mxCell id="gmV4FLeOSdiEn-evFXXv-208" value="RegWrite E" style="text;html=1;align=center;verticalAlign=middle;whiteSpace=wrap;rounded=0;" vertex="1" parent="1">
          <mxGeometry x="710" y="580" width="115" height="30" as="geometry" />
        </mxCell>
        <mxCell id="gmV4FLeOSdiEn-evFXXv-209" value="RegWrite M" style="text;html=1;align=center;verticalAlign=middle;whiteSpace=wrap;rounded=0;" vertex="1" parent="1">
          <mxGeometry x="1720" y="580" width="115" height="30" as="geometry" />
        </mxCell>
        <mxCell id="gmV4FLeOSdiEn-evFXXv-210" value="RegWrite W" style="text;html=1;align=center;verticalAlign=middle;whiteSpace=wrap;rounded=0;" vertex="1" parent="1">
          <mxGeometry x="2665" y="580" width="115" height="30" as="geometry" />
        </mxCell>
        <mxCell id="gmV4FLeOSdiEn-evFXXv-211" value="" style="endArrow=none;html=1;rounded=0;fillColor=#fad7ac;strokeColor=#b46504;" edge="1" parent="1">
          <mxGeometry width="50" height="50" relative="1" as="geometry">
            <mxPoint x="2770" y="600" as="sourcePoint" />
            <mxPoint x="2770" y="280" as="targetPoint" />
          </mxGeometry>
        </mxCell>
        <mxCell id="gmV4FLeOSdiEn-evFXXv-212" value="" style="endArrow=none;html=1;rounded=0;fillColor=#fad7ac;strokeColor=#b46504;" edge="1" parent="1">
          <mxGeometry width="50" height="50" relative="1" as="geometry">
            <mxPoint x="280" y="280" as="sourcePoint" />
            <mxPoint x="2770" y="280" as="targetPoint" />
          </mxGeometry>
        </mxCell>
        <mxCell id="gmV4FLeOSdiEn-evFXXv-213" value="" style="endArrow=classic;html=1;rounded=0;fillColor=#fad7ac;strokeColor=#b46504;entryX=0;entryY=0.2;entryDx=0;entryDy=0;entryPerimeter=0;" edge="1" parent="1" target="gmV4FLeOSdiEn-evFXXv-19">
          <mxGeometry width="50" height="50" relative="1" as="geometry">
            <mxPoint x="280" y="280" as="sourcePoint" />
            <mxPoint x="280" y="910" as="targetPoint" />
          </mxGeometry>
        </mxCell>
        <mxCell id="gmV4FLeOSdiEn-evFXXv-215" value="" style="endArrow=none;html=1;rounded=0;fillColor=#b1ddf0;strokeColor=#10739e;" edge="1" parent="1">
          <mxGeometry width="50" height="50" relative="1" as="geometry">
            <mxPoint x="300" y="880" as="sourcePoint" />
            <mxPoint x="297.5" y="635" as="targetPoint" />
          </mxGeometry>
        </mxCell>
        <mxCell id="gmV4FLeOSdiEn-evFXXv-216" value="" style="endArrow=none;html=1;rounded=0;fillColor=#b1ddf0;strokeColor=#10739e;" edge="1" parent="1">
          <mxGeometry width="50" height="50" relative="1" as="geometry">
            <mxPoint x="240" y="880" as="sourcePoint" />
            <mxPoint x="300" y="880" as="targetPoint" />
          </mxGeometry>
        </mxCell>
        <mxCell id="gmV4FLeOSdiEn-evFXXv-217" value="" style="endArrow=classic;html=1;rounded=0;entryX=0;entryY=0.4;entryDx=0;entryDy=0;entryPerimeter=0;fillColor=#b1ddf0;strokeColor=#10739e;" edge="1" parent="1" target="gmV4FLeOSdiEn-evFXXv-19">
          <mxGeometry width="50" height="50" relative="1" as="geometry">
            <mxPoint x="240" y="880" as="sourcePoint" />
            <mxPoint x="240" y="900" as="targetPoint" />
          </mxGeometry>
        </mxCell>
        <mxCell id="gmV4FLeOSdiEn-evFXXv-218" value="" style="endArrow=classic;html=1;rounded=0;exitX=0.984;exitY=0.646;exitDx=0;exitDy=0;exitPerimeter=0;fillColor=#b1ddf0;strokeColor=#10739e;" edge="1" parent="1" source="gmV4FLeOSdiEn-evFXXv-81">
          <mxGeometry width="50" height="50" relative="1" as="geometry">
            <mxPoint x="259.9999999999997" y="683.3600000000006" as="sourcePoint" />
            <mxPoint x="800" y="680" as="targetPoint" />
          </mxGeometry>
        </mxCell>
        <mxCell id="gmV4FLeOSdiEn-evFXXv-219" value="" style="endArrow=classic;html=1;rounded=0;fillColor=#b1ddf0;strokeColor=#10739e;" edge="1" parent="1">
          <mxGeometry width="50" height="50" relative="1" as="geometry">
            <mxPoint x="800" y="680" as="sourcePoint" />
            <mxPoint x="800" y="1190" as="targetPoint" />
          </mxGeometry>
        </mxCell>
        <mxCell id="gmV4FLeOSdiEn-evFXXv-220" value="RegDstD" style="text;html=1;align=center;verticalAlign=middle;whiteSpace=wrap;rounded=0;" vertex="1" parent="1">
          <mxGeometry x="312" y="660" width="60" height="30" as="geometry" />
        </mxCell>
        <mxCell id="gmV4FLeOSdiEn-evFXXv-221" value="RegDstE" style="text;html=1;align=center;verticalAlign=middle;whiteSpace=wrap;rounded=0;" vertex="1" parent="1">
          <mxGeometry x="722.5" y="660" width="60" height="30" as="geometry" />
        </mxCell>
        <mxCell id="gmV4FLeOSdiEn-evFXXv-222" value="" style="endArrow=classic;html=1;rounded=0;exitX=0.984;exitY=0.646;exitDx=0;exitDy=0;exitPerimeter=0;fillColor=#b1ddf0;strokeColor=#10739e;" edge="1" parent="1">
          <mxGeometry width="50" height="50" relative="1" as="geometry">
            <mxPoint x="260" y="658.75" as="sourcePoint" />
            <mxPoint x="1050" y="660" as="targetPoint" />
          </mxGeometry>
        </mxCell>
        <mxCell id="gmV4FLeOSdiEn-evFXXv-223" value="" style="endArrow=classic;html=1;rounded=0;fillColor=#b1ddf0;strokeColor=#10739e;" edge="1" parent="1">
          <mxGeometry width="50" height="50" relative="1" as="geometry">
            <mxPoint x="1050" y="660" as="sourcePoint" />
            <mxPoint x="1050" y="1050" as="targetPoint" />
          </mxGeometry>
        </mxCell>
        <mxCell id="gmV4FLeOSdiEn-evFXXv-224" value="ALUsrc D" style="text;html=1;align=center;verticalAlign=middle;whiteSpace=wrap;rounded=0;" vertex="1" parent="1">
          <mxGeometry x="335" y="640" width="60" height="30" as="geometry" />
        </mxCell>
        <mxCell id="gmV4FLeOSdiEn-evFXXv-225" value="ALUsrc E" style="text;html=1;align=center;verticalAlign=middle;whiteSpace=wrap;rounded=0;" vertex="1" parent="1">
          <mxGeometry x="957.5" y="650" width="60" height="30" as="geometry" />
        </mxCell>
        <mxCell id="gmV4FLeOSdiEn-evFXXv-226" value="" style="endArrow=none;html=1;rounded=0;fillColor=#b1ddf0;strokeColor=#10739e;exitX=0.026;exitY=-0.044;exitDx=0;exitDy=0;exitPerimeter=0;" edge="1" parent="1" source="gmV4FLeOSdiEn-evFXXv-207">
          <mxGeometry width="50" height="50" relative="1" as="geometry">
            <mxPoint x="265" y="580" as="sourcePoint" />
            <mxPoint x="1600" y="580" as="targetPoint" />
          </mxGeometry>
        </mxCell>
        <mxCell id="gmV4FLeOSdiEn-evFXXv-227" value="" style="endArrow=classic;html=1;rounded=0;fillColor=#b1ddf0;strokeColor=#10739e;" edge="1" parent="1">
          <mxGeometry width="50" height="50" relative="1" as="geometry">
            <mxPoint x="1600" y="580" as="sourcePoint" />
            <mxPoint x="1600" y="980" as="targetPoint" />
          </mxGeometry>
        </mxCell>
        <mxCell id="gmV4FLeOSdiEn-evFXXv-228" value="EX out D" style="text;html=1;align=center;verticalAlign=middle;whiteSpace=wrap;rounded=0;" vertex="1" parent="1">
          <mxGeometry x="292.5" y="560" width="60" height="30" as="geometry" />
        </mxCell>
        <mxCell id="gmV4FLeOSdiEn-evFXXv-229" value="EX out E" style="text;html=1;align=center;verticalAlign=middle;whiteSpace=wrap;rounded=0;" vertex="1" parent="1">
          <mxGeometry x="1550" y="550" width="60" height="30" as="geometry" />
        </mxCell>
        <mxCell id="gmV4FLeOSdiEn-evFXXv-230" value="" style="endArrow=none;html=1;rounded=0;fillColor=#b1ddf0;strokeColor=#10739e;" edge="1" parent="1">
          <mxGeometry width="50" height="50" relative="1" as="geometry">
            <mxPoint x="262.5" y="560" as="sourcePoint" />
            <mxPoint x="1320" y="560" as="targetPoint" />
          </mxGeometry>
        </mxCell>
        <mxCell id="gmV4FLeOSdiEn-evFXXv-231" value="" style="endArrow=classic;html=1;rounded=0;fillColor=#b1ddf0;strokeColor=#10739e;" edge="1" parent="1">
          <mxGeometry width="50" height="50" relative="1" as="geometry">
            <mxPoint x="1320" y="560" as="sourcePoint" />
            <mxPoint x="1320" y="950" as="targetPoint" />
          </mxGeometry>
        </mxCell>
        <mxCell id="gmV4FLeOSdiEn-evFXXv-232" value="ALU control D" style="text;html=1;align=center;verticalAlign=middle;whiteSpace=wrap;rounded=0;" vertex="1" parent="1">
          <mxGeometry x="280" y="540" width="95" height="30" as="geometry" />
        </mxCell>
        <mxCell id="gmV4FLeOSdiEn-evFXXv-233" value="ALU control E" style="text;html=1;align=center;verticalAlign=middle;whiteSpace=wrap;rounded=0;" vertex="1" parent="1">
          <mxGeometry x="727.5" y="540" width="95" height="30" as="geometry" />
        </mxCell>
        <mxCell id="gmV4FLeOSdiEn-evFXXv-234" value="" style="endArrow=none;html=1;rounded=0;fillColor=#b1ddf0;strokeColor=#10739e;exitX=1.032;exitY=0.196;exitDx=0;exitDy=0;exitPerimeter=0;" edge="1" parent="1" source="gmV4FLeOSdiEn-evFXXv-81">
          <mxGeometry width="50" height="50" relative="1" as="geometry">
            <mxPoint x="265" y="540" as="sourcePoint" />
            <mxPoint x="1440" y="540" as="targetPoint" />
          </mxGeometry>
        </mxCell>
        <mxCell id="gmV4FLeOSdiEn-evFXXv-235" value="" style="endArrow=classic;html=1;rounded=0;fillColor=#b1ddf0;strokeColor=#10739e;entryX=1;entryY=0.75;entryDx=0;entryDy=0;" edge="1" parent="1" target="gmV4FLeOSdiEn-evFXXv-128">
          <mxGeometry width="50" height="50" relative="1" as="geometry">
            <mxPoint x="1440" y="540" as="sourcePoint" />
            <mxPoint x="1490" y="490" as="targetPoint" />
          </mxGeometry>
        </mxCell>
        <mxCell id="gmV4FLeOSdiEn-evFXXv-236" value="MUL control D" style="text;html=1;align=center;verticalAlign=middle;whiteSpace=wrap;rounded=0;" vertex="1" parent="1">
          <mxGeometry x="283" y="520" width="87" height="30" as="geometry" />
        </mxCell>
        <mxCell id="gmV4FLeOSdiEn-evFXXv-237" value="MUL control D" style="text;html=1;align=center;verticalAlign=middle;whiteSpace=wrap;rounded=0;" vertex="1" parent="1">
          <mxGeometry x="724" y="520" width="87" height="30" as="geometry" />
        </mxCell>
      </root>
    </mxGraphModel>
  </diagram>
</mxfile>
